<?xml version="1.0" encoding="utf-8"?>
<!-- Generator: Adobe Illustrator 17.0.0, SVG Export Plug-In . SVG Version: 6.00 Build 0)  -->
<!DOCTYPE svg PUBLIC "-//W3C//DTD SVG 1.1//EN" "http://www.w3.org/Graphics/SVG/1.1/DTD/svg11.dtd">
<svg version="1.1" xmlns="http://www.w3.org/2000/svg" xmlns:xlink="http://www.w3.org/1999/xlink" x="0px" y="0px" width="1400px"
	 height="980" viewBox="0 100 1400 980" enable-background="new 0 0 1400 1000" xml:space="preserve" preserveAspectRatio="none">
<g id="Layer_1">
	<rect fill-rule="evenodd" clip-rule="evenodd" fill="#4FD0FF" width="1400" height="980"/>
</g>
<g id="Layer_2">
	<g>
		<g>
			<path fill-rule="evenodd" clip-rule="evenodd" fill="#FFFFFF" d="M0,980V169.2c58-14.8,151.6,37.6,86.4,107.5
				c27.7-20.6,61.7-15.3,51.9,5.6c25.5-15.8,52-4.1,45.6,25c8.6-17.4,17-21.9,28-12.1c11-21.2,36.5-35.8,64.8-37.1
				c-35.2-25-5.5-50.1,37.1-57c13.3-49.1,116.4-27.4,66.2,16.7c30.7-1.5,31.8,39.1-4.2,51.9c19.2-3.1,47.7,24.2,54.6,41.7
				c2-30.6,26.7-46.6,37.5-46.8c15-15.3,55.2,2.8,29.6,39c26.4-17.3,69.4-21.6,61.1-1.9c10.1,1.3,17.4,11.2,1.9,24.1
				c25.8-10.1,55.9,0.4,64.8,14.8c21.1-22.1,44.9-11.7,50,1.9c15.1-10,37.7-13.7,53.7-5.6c0.6-17.4,27.5-14.8,42.6,0
				c-0.8-23.7,35.6-34,53.7-20.4c-0.5-21.5,42.9-19.8,46.3,9.3c11.2-23.9,40-27.8,59.2-5.6c0.9-25,43.8-13.7,63,16.7
				c-1.4-36.5,41-41.6,74.1-26c-5.1-16.4,22.2-30,61.1-7.4c-9.9-19.2,2.5-47.1,37.1-46.3c-10.5-29.5,43.4-52.5,79.6-3.7
				c-10.6-43.1,36.6-95,94.5-55.6c6-13.8,29.5-6.1,22.3,31.5c12-13.5,32.6-11.4,37.5,11.1V980H0z"/>
			<path fill-rule="evenodd" clip-rule="evenodd" fill="#D1DAE3" d="M1400,980H0V229.7c34.6-14.2,60.6,31.8,36,54.7
				c15.5-0.9,37.3,6.9,25,25.9c19.1-18.4,36.8-11.1,32.9-2.3c13.6-0.9,20.7,7.7,10.2,18.1c11.8-4.4,29.9,9.7,25,25
				c17-17.6,40.5-28.3,41.2-13.9c8.8-2.8,10.6,7.2,6.9,15.3c8.1-6,17.4-7.9,22.2,1.4c-5.1-25.8-5.1-41.3,21.8-44.9
				c-4.7-27.8,30.7-39.1,64.4-49.6c-22.2-22.8,3.6-51.6,42.6-32c-2-20.6,42.3-19.4,23.1-1.4c36.8-5.6,4.4,30.9-8.3,36.6
				c17.3,9.4,16.3,31,4.7,51c25.1-8.3,45.5,0.5,41.2,11.1c11.6,0.1,22.2,8.4,18.1,19.9c10.1-14.7,33.2-15.3,49.1-11.6
				c-11-5.7-22.4-13.3-17.6-22.7c-8.6-21.7,19.5-46.6,35.2-32.4c15.6-2.2,11.5,12.2,5.1,20.4c14,2.4,18.9,14,14.8,31.5
				c11.3-14,28.3-18.8,25.4-6c24.1-5.3,19,13.2,2.8,20.8c22.7-7.1,36.7-6.9,41.2,1.4c22.5-12.5,51.1-5.8,57.9,4.2
				c11.3-5,25.4-10.5,32-1.9c10.4-5.7,18.4-5.7,23.6,0.9c8.6-6.3,14.4-14.5,47.2-4.2c4.2-7.6,13-6.3,25.9,2.8
				c4.3-9.1,9.6-16.2,25-2.3c1.2-15.6,20.6-17.8,60.6,4.6c7.4-10.3,53.7-12.2,74.1-0.5c0.3-13.6,18-29.5,37.9-1.9
				c0-10.4,13.3-6.8,19.5-1.4c-6.1-13.1,11.2-20.8,27.3-3.2c7.8-24.1,40.8-14.6,63,6.9c-4.9-22.3,10.2-31.2,37.5-16.2
				c-9.6-14.4,54.5-19.7,94,19.5c-6.8-29.2,3.8-56.8,32-36.2c-23.7-22.3-24.2-41.1-8.4-38.9c-21.3-21.4,16.5-33.5,42.1-12.1
				c-1.5-16.8,27-14,38.4,28.7c-0.1-19.5,12.8-29.7,24.1-20.8c-10.8-22.2-5.8-59.1,6.5-54.2c10.4-22.2,40.2-11.7,28.3,29.2
				c15.5-14.8,41.3-10.6,48.7,13.9V980z"/>
		</g>
		<g>
			<path fill-rule="evenodd" clip-rule="evenodd" fill="#FFFFFF" d="M1232.5,219.3c-55.6,20.5-159.7,34.2-293.1,43.6
				c-3.6-9.3,63.4-10,94-20.9c-17.5-11.8,15.2-22.5,30.1-18.1c-35-23.2,8.8-52.6,29.2-32c-1.9-25.5,44.9-13.3,48.6,21.3
				c5.3-20.4,24.5-26.4,32-19.5c18.1-19,23.6,9.5,14.3,27.6C1199.3,223,1232.9,207.6,1232.5,219.3L1232.5,219.3z"/>
			<path fill-rule="evenodd" clip-rule="evenodd" fill="#D1DAE3" d="M1232.5,219.3c-55.6,20.5-159.7,34.2-293.1,43.6
				c-3.6-9.3,91.7-7.7,122.2-18.6c-17.5-11.8,0.8-18.5,15.7-14.1c-35-23.2,13.4-46.1,33.8-25.5c-1.9-25.6,27.1-12.2,30.8,22.5
				c5.3-20.4,26.6-28,34-21.1c18.1-19,14.8,1.4,5.6,19.5C1193.2,227.1,1232.9,207.6,1232.5,219.3L1232.5,219.3z"/>
		</g>
		<g>
			<path fill-rule="evenodd" clip-rule="evenodd" fill="#FFFFFF" d="M26.1,229c55.6,20.6,159.7,34.2,293.1,43.6
				c3.6-9.3-63.4-10-94-20.8c17.5-11.8-15.2-22.5-30.1-18.1c35-23.2-8.8-52.6-29.2-32c1.9-25.6-44.9-13.4-48.6,21.3
				c-5.3-20.4-24.5-26.4-31.9-19.4c-18.1-19-23.6,9.5-14.4,27.6C59.4,232.7,25.7,217.3,26.1,229L26.1,229z"/>
			<path fill-rule="evenodd" clip-rule="evenodd" fill="#D1DAE3" d="M26.1,229c55.6,20.6,159.7,34.2,293.1,43.6
				c3.6-9.3-91.7-7.7-122.2-18.5c17.5-11.8-0.8-18.5-15.7-14.2c35-23.2-13.4-46.1-33.8-25.5c1.9-25.6-27.1-12.2-30.8,22.5
				c-5.4-20.4-26.6-28-34.1-21.1c-18.1-19-14.8,1.4-5.6,19.5C65.4,236.9,25.7,217.3,26.1,229L26.1,229z"/>
		</g>
		<g>
			<path fill-rule="evenodd" clip-rule="evenodd" fill="#FFFFFF" d="M387.1,234.3c31.2,8.3,88.3,10.4,161,8.8
				c1.5-5.2-34.9-2.2-52-6.6c8.9-7.3-9.4-11.4-17.2-8.3c17.8-14.3-7.4-28.1-17.4-15.8c-0.3-14-25-5-25.3,14
				c-3.9-10.8-14.6-13.1-18.3-8.9c-10.7-9.4-12.3,6.3-6.4,15.7C405.3,234.6,386.3,227.9,387.1,234.3L387.1,234.3z"/>
			<path fill-rule="evenodd" clip-rule="evenodd" fill="#D1DAE3" d="M387.1,234.3c31.2,8.3,88.3,10.4,161,8.8
				c1.5-5.2-50.1,0.5-67.2-3.9c8.9-7.3-1.4-10-9.2-6.9c17.8-14.3-9.6-24.3-19.6-12.1c-0.3-14-15.3-5.3-15.6,13.7
				c-3.9-10.8-15.8-13.9-19.5-9.7c-10.7-9.4-7.9,1.5-2,10.8C408.8,236.5,386.3,227.9,387.1,234.3L387.1,234.3z"/>
		</g>
	</g>
	<g>
		<path fill-rule="evenodd" clip-rule="evenodd" fill="#778599" d="M1400,380.2V980H0V380.2c216-17.4,452.2-27,700-27
			s484,9.9,700,27.3V380.2z"/>
		<path fill-rule="evenodd" clip-rule="evenodd" fill="#40434D" d="M1400,398.5V980H0V398.5c460.5-46.2,938.3-45.9,1400,0.3V398.5z"
			/>
		<path fill-rule="evenodd" clip-rule="evenodd" fill="#778599" d="M1400,564v272.3c-149.4,68.8-406.6,114.3-700,114.3
			S148.1,905.1,0,836.3V564c148.1-68.8,406.6-114.3,700-114.3S1250.6,495.1,1400,564L1400,564z"/>
		<path fill-rule="evenodd" clip-rule="evenodd" fill="#009933" d="M1400,576.6v246.9c-140.7,72-401.7,120.4-700,120.4
			c-298.2,0-559.3-48.3-700-120.4V576.6c140.7-72,401.8-120.4,700-120.4C998.3,456.3,1259.3,504.6,1400,576.6L1400,576.6z"/>
		<path fill-rule="evenodd" clip-rule="evenodd" fill="#778599" d="M0,479.5c223.5-42.1,463.2-71.6,700-71.6s476.5,29.5,700,71.6
			v-12.8c-228.4-36.2-466.4-63-700-63s-472.8,26.8-700,63V479.5z"/>
	</g>
	<g>
		<path fill-rule="evenodd" clip-rule="evenodd" fill="#FFD13B" d="M15.2,489c1.5,0,2.7,1.2,2.7,2.7c0,1.5-1.2,2.7-2.7,2.7
			c-1.5,0-2.7-1.2-2.7-2.7C12.5,490.2,13.7,489,15.2,489L15.2,489z M1391.1,489c-1.5,0-2.7,1.2-2.7,2.7c0,1.5,1.2,2.7,2.7,2.7
			c1.5,0,2.7-1.2,2.7-2.7C1393.7,490.2,1392.5,489,1391.1,489L1391.1,489z M851.5,417.5c-1.5,0-2.7,1.2-2.7,2.7
			c0,1.5,1.2,2.7,2.7,2.7c1.5,0,2.7-1.2,2.7-2.7C854.2,418.7,853,417.5,851.5,417.5L851.5,417.5z M813.2,435.5
			c-1.5,0-2.7,1.2-2.7,2.7c0,1.5,1.2,2.7,2.7,2.7c1.5,0,2.7-1.2,2.7-2.7C815.8,436.7,814.7,435.5,813.2,435.5L813.2,435.5z
			 M787.3,414.4c-1.5,0-2.7,1.2-2.7,2.7c0,1.5,1.2,2.7,2.7,2.7s2.7-1.2,2.7-2.7C789.9,415.6,788.7,414.4,787.3,414.4L787.3,414.4z
			 M755.3,432c-1.5,0-2.7,1.2-2.7,2.7c0,1.5,1.2,2.7,2.7,2.7c1.5,0,2.7-1.2,2.7-2.7C758,433.2,756.8,432,755.3,432L755.3,432z
			 M801.8,425.1c-1.5,0-2.7,1.2-2.7,2.7c0,1.5,1.2,2.7,2.7,2.7c1.5,0,2.7-1.2,2.7-2.7C804.5,426.3,803.3,425.1,801.8,425.1
			L801.8,425.1z M830.3,421.8c-1.5,0-2.7,1.2-2.7,2.7s1.2,2.7,2.7,2.7c1.5,0,2.7-1.2,2.7-2.7S831.8,421.8,830.3,421.8L830.3,421.8z
			 M850.2,436.6c-1.5,0-2.7,1.2-2.7,2.7c0,1.5,1.2,2.7,2.7,2.7c1.5,0,2.7-1.2,2.7-2.7C852.9,437.8,851.7,436.6,850.2,436.6
			L850.2,436.6z M866.2,422.7c-1.5,0-2.7,1.2-2.7,2.7c0,1.5,1.2,2.7,2.7,2.7c1.5,0,2.7-1.2,2.7-2.7
			C868.9,423.9,867.7,422.7,866.2,422.7L866.2,422.7z M884.6,433.1c-1.5,0-2.7,1.2-2.7,2.7c0,1.5,1.2,2.7,2.7,2.7
			c1.5,0,2.7-1.2,2.7-2.7C887.3,434.2,886.1,433.1,884.6,433.1L884.6,433.1z M917.1,425.4c-1.5,0-2.7,1.2-2.7,2.7
			c0,1.5,1.2,2.7,2.7,2.7c1.5,0,2.7-1.2,2.7-2.7C919.8,426.6,918.6,425.4,917.1,425.4L917.1,425.4z M924.8,438
			c-1.5,0-2.7,1.2-2.7,2.7c0,1.5,1.2,2.7,2.7,2.7c1.5,0,2.7-1.2,2.7-2.7C927.4,439.2,926.2,438,924.8,438L924.8,438z M908.9,429.8
			c-1.5,0-2.7,1.2-2.7,2.7c0,1.5,1.2,2.7,2.7,2.7c1.5,0,2.7-1.2,2.7-2.7C911.6,431,910.4,429.8,908.9,429.8L908.9,429.8z
			 M937.5,421.6c-1.5,0-2.7,1.2-2.7,2.7c0,1.5,1.2,2.7,2.7,2.7c1.5,0,2.7-1.2,2.7-2.7C940.1,422.8,939,421.6,937.5,421.6
			L937.5,421.6z M1001.6,442.4c-1.5,0-2.7,1.2-2.7,2.7c0,1.5,1.2,2.7,2.7,2.7c1.5,0,2.7-1.2,2.7-2.7
			C1004.3,443.6,1003.1,442.4,1001.6,442.4L1001.6,442.4z M975.7,421.4c-1.5,0-2.7,1.2-2.7,2.7c0,1.5,1.2,2.7,2.7,2.7
			c1.5,0,2.7-1.2,2.7-2.7C978.3,422.5,977.1,421.4,975.7,421.4L975.7,421.4z M971.5,448.2c-1.5,0-2.7,1.2-2.7,2.7
			c0,1.5,1.2,2.7,2.7,2.7c1.5,0,2.7-1.2,2.7-2.7C974.2,449.4,973,448.2,971.5,448.2L971.5,448.2z M952.1,437.1
			c-1.5,0-2.7,1.2-2.7,2.7s1.2,2.7,2.7,2.7c1.5,0,2.7-1.2,2.7-2.7S953.6,437.1,952.1,437.1L952.1,437.1z M962.5,425.7
			c-1.5,0-2.7,1.2-2.7,2.7c0,1.5,1.2,2.7,2.7,2.7c1.5,0,2.7-1.2,2.7-2.7C965.1,426.9,963.9,425.7,962.5,425.7L962.5,425.7z
			 M1068.3,458.5c-1.5,0-2.7,1.2-2.7,2.7c0,1.5,1.2,2.7,2.7,2.7c1.5,0,2.7-1.2,2.7-2.7C1070.9,459.7,1069.7,458.5,1068.3,458.5
			L1068.3,458.5z M990.3,432c-1.5,0-2.7,1.2-2.7,2.7c0,1.5,1.2,2.7,2.7,2.7c1.5,0,2.7-1.2,2.7-2.7C992.9,433.2,991.7,432,990.3,432
			L990.3,432z M1018.7,428.7c-1.5,0-2.7,1.2-2.7,2.7c0,1.5,1.2,2.7,2.7,2.7c1.5,0,2.7-1.2,2.7-2.7
			C1021.4,429.9,1020.2,428.7,1018.7,428.7L1018.7,428.7z M1038.7,443.6c-1.5,0-2.7,1.2-2.7,2.7c0,1.5,1.2,2.7,2.7,2.7
			c1.5,0,2.7-1.2,2.7-2.7C1041.3,444.8,1040.1,443.6,1038.7,443.6L1038.7,443.6z M1054.6,429.7c-1.5,0-2.7,1.2-2.7,2.7
			c0,1.5,1.2,2.7,2.7,2.7s2.7-1.2,2.7-2.7C1057.3,430.9,1056.1,429.7,1054.6,429.7L1054.6,429.7z M1073,440c-1.5,0-2.7,1.2-2.7,2.7
			s1.2,2.7,2.7,2.7c1.5,0,2.7-1.2,2.7-2.7S1074.5,440,1073,440L1073,440z M1090.7,440.4c-1.5,0-2.7,1.2-2.7,2.7
			c0,1.5,1.2,2.7,2.7,2.7s2.7-1.2,2.7-2.7C1093.4,441.7,1092.2,440.4,1090.7,440.4L1090.7,440.4z M1107.4,455.3
			c-1.5,0-2.7,1.2-2.7,2.7c0,1.5,1.2,2.7,2.7,2.7c1.5,0,2.7-1.2,2.7-2.7C1110.1,456.5,1108.9,455.3,1107.4,455.3L1107.4,455.3z
			 M1130.1,447.9c-1.5,0-2.7,1.2-2.7,2.7c0,1.5,1.2,2.7,2.7,2.7c1.5,0,2.7-1.2,2.7-2.7C1132.7,449.1,1131.5,447.9,1130.1,447.9
			L1130.1,447.9z M1151.4,467.8c-1.5,0-2.7,1.2-2.7,2.7c0,1.5,1.2,2.7,2.7,2.7c1.5,0,2.7-1.2,2.7-2.7
			C1154,469,1152.9,467.8,1151.4,467.8L1151.4,467.8z M1168.5,451.6c-1.5,0-2.7,1.2-2.7,2.7c0,1.5,1.2,2.7,2.7,2.7s2.7-1.2,2.7-2.7
			C1171.2,452.8,1170,451.6,1168.5,451.6L1168.5,451.6z M1177.8,468.2c-1.5,0-2.7,1.2-2.7,2.7c0,1.5,1.2,2.7,2.7,2.7
			s2.7-1.2,2.7-2.7C1180.4,469.3,1179.2,468.2,1177.8,468.2L1177.8,468.2z M1203.2,451c-1.5,0-2.7,1.2-2.7,2.7
			c0,1.5,1.2,2.7,2.7,2.7c1.5,0,2.7-1.2,2.7-2.7C1205.9,452.2,1204.7,451,1203.2,451L1203.2,451z M1207.9,484.8
			c-1.5,0-2.7,1.2-2.7,2.7c0,1.5,1.2,2.7,2.7,2.7s2.7-1.2,2.7-2.7C1210.5,486,1209.3,484.8,1207.9,484.8L1207.9,484.8z
			 M1200.9,466.3c-1.5,0-2.7,1.2-2.7,2.7c0,1.5,1.2,2.7,2.7,2.7c1.5,0,2.7-1.2,2.7-2.7C1203.6,467.5,1202.4,466.3,1200.9,466.3
			L1200.9,466.3z M1227.1,460.2c-1.5,0-2.7,1.2-2.7,2.7c0,1.5,1.2,2.7,2.7,2.7c1.5,0,2.7-1.2,2.7-2.7
			C1229.7,461.4,1228.5,460.2,1227.1,460.2L1227.1,460.2z M1242.8,487c-1.5,0-2.7,1.2-2.7,2.7c0,1.5,1.2,2.7,2.7,2.7
			c1.5,0,2.7-1.2,2.7-2.7C1245.5,488.2,1244.3,487,1242.8,487L1242.8,487z M1261.5,459.7c-1.5,0-2.7,1.2-2.7,2.7
			c0,1.5,1.2,2.7,2.7,2.7s2.7-1.2,2.7-2.7C1264.2,460.9,1263,459.7,1261.5,459.7L1261.5,459.7z M1255.5,470.6
			c-1.5,0-2.7,1.2-2.7,2.7c0,1.5,1.2,2.7,2.7,2.7c1.5,0,2.7-1.2,2.7-2.7C1258.2,471.8,1257,470.6,1255.5,470.6L1255.5,470.6z
			 M1366.9,528.5c-1.5,0-2.7,1.2-2.7,2.7c0,1.5,1.2,2.7,2.7,2.7c1.5,0,2.7-1.2,2.7-2.7C1369.5,529.7,1368.4,528.5,1366.9,528.5
			L1366.9,528.5z M1319.7,491.5c-1.5,0-2.7,1.2-2.7,2.7c0,1.5,1.2,2.7,2.7,2.7c1.5,0,2.7-1.2,2.7-2.7
			C1322.3,492.6,1321.1,491.5,1319.7,491.5L1319.7,491.5z M1293.7,470.4c-1.5,0-2.7,1.2-2.7,2.7s1.2,2.7,2.7,2.7s2.7-1.2,2.7-2.7
			S1295.2,470.4,1293.7,470.4L1293.7,470.4z M1289.6,497.2c-1.5,0-2.7,1.2-2.7,2.7c0,1.5,1.2,2.7,2.7,2.7c1.5,0,2.7-1.2,2.7-2.7
			C1292.2,498.4,1291,497.2,1289.6,497.2L1289.6,497.2z M1270.1,486.1c-1.5,0-2.7,1.2-2.7,2.7c0,1.5,1.2,2.7,2.7,2.7
			s2.7-1.2,2.7-2.7C1272.8,487.3,1271.6,486.1,1270.1,486.1L1270.1,486.1z M1280.6,474.7c-1.5,0-2.7,1.2-2.7,2.7
			c0,1.5,1.2,2.7,2.7,2.7s2.7-1.2,2.7-2.7C1283.2,475.9,1282,474.7,1280.6,474.7L1280.6,474.7z M1317.6,503.5
			c-1.5,0-2.7,1.2-2.7,2.7c0,1.5,1.2,2.7,2.7,2.7s2.7-1.2,2.7-2.7C1320.2,504.7,1319,503.5,1317.6,503.5L1317.6,503.5z M1308.3,481
			c-1.5,0-2.7,1.2-2.7,2.7c0,1.5,1.2,2.7,2.7,2.7c1.5,0,2.7-1.2,2.7-2.7C1311,482.2,1309.8,481,1308.3,481L1308.3,481z
			 M1336.8,477.8c-1.5,0-2.7,1.2-2.7,2.7c0,1.5,1.2,2.7,2.7,2.7c1.5,0,2.7-1.2,2.7-2.7C1339.4,478.9,1338.3,477.8,1336.8,477.8
			L1336.8,477.8z M1356.7,492.6c-1.5,0-2.7,1.2-2.7,2.7c0,1.5,1.2,2.7,2.7,2.7s2.7-1.2,2.7-2.7
			C1359.4,493.8,1358.2,492.6,1356.7,492.6L1356.7,492.6z M1372.7,478.7c-1.5,0-2.7,1.2-2.7,2.7c0,1.5,1.2,2.7,2.7,2.7
			s2.7-1.2,2.7-2.7C1375.4,479.9,1374.1,478.7,1372.7,478.7L1372.7,478.7z M773.3,434.2c1.5,0,2.7,1.2,2.7,2.7s-1.2,2.7-2.7,2.7
			c-1.5,0-2.7-1.2-2.7-2.7S771.8,434.2,773.3,434.2L773.3,434.2z M554.8,417.5c1.5,0,2.7,1.2,2.7,2.7c0,1.5-1.2,2.7-2.7,2.7
			c-1.5,0-2.7-1.2-2.7-2.7C552.1,418.7,553.3,417.5,554.8,417.5L554.8,417.5z M702.9,431.7c1.5,0,2.7,1.2,2.7,2.7
			c0,1.5-1.2,2.7-2.7,2.7c-1.5,0-2.7-1.2-2.7-2.7C700.3,432.8,701.4,431.7,702.9,431.7L702.9,431.7z M728.8,410.6
			c1.5,0,2.7,1.2,2.7,2.7c0,1.5-1.2,2.7-2.7,2.7c-1.5,0-2.7-1.2-2.7-2.7C726.2,411.8,727.4,410.6,728.8,410.6L728.8,410.6z
			 M733,437.4c1.5,0,2.7,1.2,2.7,2.7c0,1.5-1.2,2.7-2.7,2.7c-1.5,0-2.7-1.2-2.7-2.7C730.3,438.7,731.5,437.4,733,437.4L733,437.4z
			 M742,415c1.5,0,2.7,1.2,2.7,2.7c0,1.5-1.2,2.7-2.7,2.7c-1.5,0-2.7-1.2-2.7-2.7C739.4,416.2,740.6,415,742,415L742,415z
			 M714.3,421.2c1.5,0,2.7,1.2,2.7,2.7c0,1.5-1.2,2.7-2.7,2.7c-1.5,0-2.7-1.2-2.7-2.7C711.6,422.4,712.8,421.2,714.3,421.2
			L714.3,421.2z M685.8,418c1.5,0,2.7,1.2,2.7,2.7c0,1.5-1.2,2.7-2.7,2.7c-1.5,0-2.7-1.2-2.7-2.7C683.1,419.2,684.3,418,685.8,418
			L685.8,418z M665.9,432.8c1.5,0,2.7,1.2,2.7,2.7c0,1.5-1.2,2.7-2.7,2.7c-1.5,0-2.7-1.2-2.7-2.7C663.2,434,664.4,432.8,665.9,432.8
			L665.9,432.8z M649.9,418.9c1.5,0,2.7,1.2,2.7,2.7c0,1.5-1.2,2.7-2.7,2.7c-1.5,0-2.7-1.2-2.7-2.7
			C647.2,420.1,648.4,418.9,649.9,418.9L649.9,418.9z M631.5,429.2c1.5,0,2.7,1.2,2.7,2.7c0,1.5-1.2,2.7-2.7,2.7
			c-1.5,0-2.7-1.2-2.7-2.7C628.8,430.4,630,429.2,631.5,429.2L631.5,429.2z M593.1,435.5c1.5,0,2.7,1.2,2.7,2.7
			c0,1.5-1.2,2.7-2.7,2.7c-1.5,0-2.7-1.2-2.7-2.7C590.4,436.7,591.6,435.5,593.1,435.5L593.1,435.5z M619,414.4
			c1.5,0,2.7,1.2,2.7,2.7c0,1.5-1.2,2.7-2.7,2.7c-1.5,0-2.7-1.2-2.7-2.7C616.3,415.6,617.5,414.4,619,414.4L619,414.4z M623.2,441.3
			c1.5,0,2.7,1.2,2.7,2.7c0,1.5-1.2,2.7-2.7,2.7c-1.5,0-2.7-1.2-2.7-2.7C620.5,442.5,621.7,441.3,623.2,441.3L623.2,441.3z
			 M632.2,418.8c1.5,0,2.7,1.2,2.7,2.7c0,1.5-1.2,2.7-2.7,2.7c-1.5,0-2.7-1.2-2.7-2.7C629.5,420,630.7,418.8,632.2,418.8
			L632.2,418.8z M604.4,425.1c1.5,0,2.7,1.2,2.7,2.7c0,1.5-1.2,2.7-2.7,2.7s-2.7-1.2-2.7-2.7C601.7,426.3,602.9,425.1,604.4,425.1
			L604.4,425.1z M575.9,421.8c1.5,0,2.7,1.2,2.7,2.7s-1.2,2.7-2.7,2.7c-1.5,0-2.7-1.2-2.7-2.7S574.5,421.8,575.9,421.8L575.9,421.8z
			 M556,436.6c1.5,0,2.7,1.2,2.7,2.7c0,1.5-1.2,2.7-2.7,2.7c-1.5,0-2.7-1.2-2.7-2.7C553.4,437.8,554.6,436.6,556,436.6L556,436.6z
			 M540.1,422.7c1.5,0,2.7,1.2,2.7,2.7c0,1.5-1.2,2.7-2.7,2.7c-1.5,0-2.7-1.2-2.7-2.7C537.4,423.9,538.6,422.7,540.1,422.7
			L540.1,422.7z M521.7,433.1c1.5,0,2.7,1.2,2.7,2.7c0,1.5-1.2,2.7-2.7,2.7c-1.5,0-2.7-1.2-2.7-2.7
			C519,434.2,520.2,433.1,521.7,433.1L521.7,433.1z M489.1,425.4c1.5,0,2.7,1.2,2.7,2.7c0,1.5-1.2,2.7-2.7,2.7s-2.7-1.2-2.7-2.7
			C486.5,426.6,487.7,425.4,489.1,425.4L489.1,425.4z M481.5,438c1.5,0,2.7,1.2,2.7,2.7c0,1.5-1.2,2.7-2.7,2.7s-2.7-1.2-2.7-2.7
			C478.8,439.2,480,438,481.5,438L481.5,438z M497.3,429.8c1.5,0,2.7,1.2,2.7,2.7c0,1.5-1.2,2.7-2.7,2.7s-2.7-1.2-2.7-2.7
			C494.7,431,495.9,429.8,497.3,429.8L497.3,429.8z M468.8,421.6c1.5,0,2.7,1.2,2.7,2.7c0,1.5-1.2,2.7-2.7,2.7s-2.7-1.2-2.7-2.7
			C466.1,422.8,467.3,421.6,468.8,421.6L468.8,421.6z M404.6,442.4c1.5,0,2.7,1.2,2.7,2.7c0,1.5-1.2,2.7-2.7,2.7s-2.7-1.2-2.7-2.7
			C402,443.6,403.2,442.4,404.6,442.4L404.6,442.4z M430.6,421.4c1.5,0,2.7,1.2,2.7,2.7c0,1.5-1.2,2.7-2.7,2.7s-2.7-1.2-2.7-2.7
			C427.9,422.5,429.1,421.4,430.6,421.4L430.6,421.4z M434.7,448.2c1.5,0,2.7,1.2,2.7,2.7c0,1.5-1.2,2.7-2.7,2.7s-2.7-1.2-2.7-2.7
			C432.1,449.4,433.3,448.2,434.7,448.2L434.7,448.2z M454.2,437.1c1.5,0,2.7,1.2,2.7,2.7s-1.2,2.7-2.7,2.7s-2.7-1.2-2.7-2.7
			S452.7,437.1,454.2,437.1L454.2,437.1z M443.8,425.7c1.5,0,2.7,1.2,2.7,2.7c0,1.5-1.2,2.7-2.7,2.7s-2.7-1.2-2.7-2.7
			C441.1,426.9,442.3,425.7,443.8,425.7L443.8,425.7z M338,458.5c1.5,0,2.7,1.2,2.7,2.7c0,1.5-1.2,2.7-2.7,2.7s-2.7-1.2-2.7-2.7
			C335.3,459.7,336.5,458.5,338,458.5L338,458.5z M416,432c1.5,0,2.7,1.2,2.7,2.7c0,1.5-1.2,2.7-2.7,2.7s-2.7-1.2-2.7-2.7
			C413.3,433.2,414.5,432,416,432L416,432z M387.5,428.7c1.5,0,2.7,1.2,2.7,2.7c0,1.5-1.2,2.7-2.7,2.7s-2.7-1.2-2.7-2.7
			C384.8,429.9,386.1,428.7,387.5,428.7L387.5,428.7z M367.6,443.6c1.5,0,2.7,1.2,2.7,2.7c0,1.5-1.2,2.7-2.7,2.7s-2.7-1.2-2.7-2.7
			C365,444.8,366.2,443.6,367.6,443.6L367.6,443.6z M351.6,429.7c1.5,0,2.7,1.2,2.7,2.7c0,1.5-1.2,2.7-2.7,2.7s-2.7-1.2-2.7-2.7
			C349,430.9,350.2,429.7,351.6,429.7L351.6,429.7z M333.2,440c1.5,0,2.7,1.2,2.7,2.7s-1.2,2.7-2.7,2.7s-2.7-1.2-2.7-2.7
			S331.7,440,333.2,440L333.2,440z M315.5,440.4c1.5,0,2.7,1.2,2.7,2.7c0,1.5-1.2,2.7-2.7,2.7s-2.7-1.2-2.7-2.7
			C312.9,441.7,314,440.4,315.5,440.4L315.5,440.4z M298.9,455.3c1.5,0,2.7,1.2,2.7,2.7c0,1.5-1.2,2.7-2.7,2.7s-2.7-1.2-2.7-2.7
			C296.2,456.5,297.4,455.3,298.9,455.3L298.9,455.3z M276.2,447.9c1.5,0,2.7,1.2,2.7,2.7c0,1.5-1.2,2.7-2.7,2.7s-2.7-1.2-2.7-2.7
			C273.5,449.1,274.7,447.9,276.2,447.9L276.2,447.9z M254.9,467.8c1.5,0,2.7,1.2,2.7,2.7c0,1.5-1.2,2.7-2.7,2.7
			c-1.5,0-2.7-1.2-2.7-2.7C252.2,469,253.4,467.8,254.9,467.8L254.9,467.8z M237.8,451.6c1.5,0,2.7,1.2,2.7,2.7
			c0,1.5-1.2,2.7-2.7,2.7s-2.7-1.2-2.7-2.7C235.1,452.8,236.3,451.6,237.8,451.6L237.8,451.6z M228.5,468.2c1.5,0,2.7,1.2,2.7,2.7
			c0,1.5-1.2,2.7-2.7,2.7s-2.7-1.2-2.7-2.7C225.8,469.3,227,468.2,228.5,468.2L228.5,468.2z M203,451c1.5,0,2.7,1.2,2.7,2.7
			c0,1.5-1.2,2.7-2.7,2.7s-2.7-1.2-2.7-2.7C200.4,452.2,201.6,451,203,451L203,451z M198.4,484.8c1.5,0,2.7,1.2,2.7,2.7
			c0,1.5-1.2,2.7-2.7,2.7s-2.7-1.2-2.7-2.7C195.7,486,196.9,484.8,198.4,484.8L198.4,484.8z M205.3,466.3c1.5,0,2.7,1.2,2.7,2.7
			c0,1.5-1.2,2.7-2.7,2.7c-1.5,0-2.7-1.2-2.7-2.7C202.7,467.5,203.9,466.3,205.3,466.3L205.3,466.3z M179.2,460.2
			c1.5,0,2.7,1.2,2.7,2.7c0,1.5-1.2,2.7-2.7,2.7s-2.7-1.2-2.7-2.7C176.5,461.4,177.7,460.2,179.2,460.2L179.2,460.2z M163.5,487
			c1.5,0,2.7,1.2,2.7,2.7c0,1.5-1.2,2.7-2.7,2.7s-2.7-1.2-2.7-2.7C160.8,488.2,162,487,163.5,487L163.5,487z M144.7,459.7
			c1.5,0,2.7,1.2,2.7,2.7c0,1.5-1.2,2.7-2.7,2.7s-2.7-1.2-2.7-2.7C142,460.9,143.2,459.7,144.7,459.7L144.7,459.7z M150.7,470.6
			c1.5,0,2.7,1.2,2.7,2.7c0,1.5-1.2,2.7-2.7,2.7s-2.7-1.2-2.7-2.7C148.1,471.8,149.2,470.6,150.7,470.6L150.7,470.6z M39.4,528.5
			c1.5,0,2.7,1.2,2.7,2.7c0,1.5-1.2,2.7-2.7,2.7c-1.5,0-2.7-1.2-2.7-2.7C36.7,529.7,37.9,528.5,39.4,528.5L39.4,528.5z M86.6,491.5
			c1.5,0,2.7,1.2,2.7,2.7c0,1.5-1.2,2.7-2.7,2.7s-2.7-1.2-2.7-2.7C83.9,492.6,85.1,491.5,86.6,491.5L86.6,491.5z M112.5,470.4
			c1.5,0,2.7,1.2,2.7,2.7s-1.2,2.7-2.7,2.7s-2.7-1.2-2.7-2.7S111,470.4,112.5,470.4L112.5,470.4z M116.7,497.2
			c1.5,0,2.7,1.2,2.7,2.7c0,1.5-1.2,2.7-2.7,2.7c-1.5,0-2.7-1.2-2.7-2.7C114,498.4,115.2,497.2,116.7,497.2L116.7,497.2z
			 M136.1,486.1c1.5,0,2.7,1.2,2.7,2.7c0,1.5-1.2,2.7-2.7,2.7s-2.7-1.2-2.7-2.7C133.5,487.3,134.7,486.1,136.1,486.1L136.1,486.1z
			 M125.7,474.7c1.5,0,2.7,1.2,2.7,2.7c0,1.5-1.2,2.7-2.7,2.7s-2.7-1.2-2.7-2.7C123,475.9,124.2,474.7,125.7,474.7L125.7,474.7z
			 M88.7,503.5c1.5,0,2.7,1.2,2.7,2.7c0,1.5-1.2,2.7-2.7,2.7c-1.5,0-2.7-1.2-2.7-2.7C86,504.7,87.2,503.5,88.7,503.5L88.7,503.5z
			 M97.9,481c1.5,0,2.7,1.2,2.7,2.7c0,1.5-1.2,2.7-2.7,2.7s-2.7-1.2-2.7-2.7C95.3,482.2,96.5,481,97.9,481L97.9,481z M69.5,477.8
			c1.5,0,2.7,1.2,2.7,2.7c0,1.5-1.2,2.7-2.7,2.7s-2.7-1.2-2.7-2.7C66.8,478.9,68,477.8,69.5,477.8L69.5,477.8z M49.5,492.6
			c1.5,0,2.7,1.2,2.7,2.7c0,1.5-1.2,2.7-2.7,2.7s-2.7-1.2-2.7-2.7C46.9,493.8,48.1,492.6,49.5,492.6L49.5,492.6z M33.6,478.7
			c1.5,0,2.7,1.2,2.7,2.7c0,1.5-1.2,2.7-2.7,2.7c-1.5,0-2.7-1.2-2.7-2.7C30.9,479.9,32.1,478.7,33.6,478.7L33.6,478.7z"/>
		<path fill-rule="evenodd" clip-rule="evenodd" fill="#FFD13B" d="M13.3,426.6c1.5,0,2.7,1.2,2.7,2.7c0,1.5-1.2,2.7-2.7,2.7
			s-2.7-1.2-2.7-2.7C10.7,427.8,11.9,426.6,13.3,426.6L13.3,426.6z M1392,428.4c-1.5,0-2.7,1.2-2.7,2.7s1.2,2.7,2.7,2.7
			s2.7-1.2,2.7-2.7S1393.5,428.4,1392,428.4L1392,428.4z M851.5,375.9c-1.5,0-2.7,1.2-2.7,2.7c0,1.5,1.2,2.7,2.7,2.7
			c1.5,0,2.7-1.2,2.7-2.7C854.2,377.1,853,375.9,851.5,375.9L851.5,375.9z M813.2,393.9c-1.5,0-2.7,1.2-2.7,2.7
			c0,1.5,1.2,2.7,2.7,2.7c1.5,0,2.7-1.2,2.7-2.7C815.8,395.1,814.7,393.9,813.2,393.9L813.2,393.9z M787.3,372.8
			c-1.5,0-2.7,1.2-2.7,2.7c0,1.5,1.2,2.7,2.7,2.7s2.7-1.2,2.7-2.7C789.9,374,788.7,372.8,787.3,372.8L787.3,372.8z M755.3,390.4
			c-1.5,0-2.7,1.2-2.7,2.7c0,1.5,1.2,2.7,2.7,2.7c1.5,0,2.7-1.2,2.7-2.7C758,391.6,756.8,390.4,755.3,390.4L755.3,390.4z
			 M801.8,383.4c-1.5,0-2.7,1.2-2.7,2.7c0,1.5,1.2,2.7,2.7,2.7c1.5,0,2.7-1.2,2.7-2.7C804.5,384.6,803.3,383.4,801.8,383.4
			L801.8,383.4z M830.3,380.2c-1.5,0-2.7,1.2-2.7,2.7c0,1.5,1.2,2.7,2.7,2.7c1.5,0,2.7-1.2,2.7-2.7
			C833,381.4,831.8,380.2,830.3,380.2L830.3,380.2z M850.2,395c-1.5,0-2.7,1.2-2.7,2.7c0,1.5,1.2,2.7,2.7,2.7c1.5,0,2.7-1.2,2.7-2.7
			C852.9,396.2,851.7,395,850.2,395L850.2,395z M866.2,381.1c-1.5,0-2.7,1.2-2.7,2.7c0,1.5,1.2,2.7,2.7,2.7c1.5,0,2.7-1.2,2.7-2.7
			C868.9,382.3,867.7,381.1,866.2,381.1L866.2,381.1z M884.6,391.4c-1.5,0-2.7,1.2-2.7,2.7c0,1.5,1.2,2.7,2.7,2.7
			c1.5,0,2.7-1.2,2.7-2.7C887.3,392.7,886.1,391.4,884.6,391.4L884.6,391.4z M917.1,383.8c-1.5,0-2.7,1.2-2.7,2.7s1.2,2.7,2.7,2.7
			c1.5,0,2.7-1.2,2.7-2.7S918.6,383.8,917.1,383.8L917.1,383.8z M924.8,396.4c-1.5,0-2.7,1.2-2.7,2.7c0,1.5,1.2,2.7,2.7,2.7
			c1.5,0,2.7-1.2,2.7-2.7C927.4,397.6,926.2,396.4,924.8,396.4L924.8,396.4z M908.9,388.2c-1.5,0-2.7,1.2-2.7,2.7
			c0,1.5,1.2,2.7,2.7,2.7c1.5,0,2.7-1.2,2.7-2.7C911.6,389.4,910.4,388.2,908.9,388.2L908.9,388.2z M937.5,380
			c-1.5,0-2.7,1.2-2.7,2.7s1.2,2.7,2.7,2.7c1.5,0,2.7-1.2,2.7-2.7S939,380,937.5,380L937.5,380z M1001.6,400.8
			c-1.5,0-2.7,1.2-2.7,2.7c0,1.5,1.2,2.7,2.7,2.7c1.5,0,2.7-1.2,2.7-2.7C1004.3,402,1003.1,400.8,1001.6,400.8L1001.6,400.8z
			 M975.7,379.7c-1.5,0-2.7,1.2-2.7,2.7c0,1.5,1.2,2.7,2.7,2.7c1.5,0,2.7-1.2,2.7-2.7C978.3,380.9,977.1,379.7,975.7,379.7
			L975.7,379.7z M975.2,400.6c-1.5,0-2.7,1.2-2.7,2.7c0,1.5,1.2,2.7,2.7,2.7c1.5,0,2.7-1.2,2.7-2.7
			C977.9,401.8,976.7,400.6,975.2,400.6L975.2,400.6z M952.1,395.5c-1.5,0-2.7,1.2-2.7,2.7c0,1.5,1.2,2.7,2.7,2.7
			c1.5,0,2.7-1.2,2.7-2.7C954.7,396.7,953.6,395.5,952.1,395.5L952.1,395.5z M962.5,384.2c-1.5,0-2.7,1.2-2.7,2.7
			c0,1.5,1.2,2.7,2.7,2.7c1.5,0,2.7-1.2,2.7-2.7C965.1,385.3,963.9,384.2,962.5,384.2L962.5,384.2z M1120.6,387.3
			c-1.5,0-2.7,1.2-2.7,2.7c0,1.5,1.2,2.7,2.7,2.7s2.7-1.2,2.7-2.7C1123.2,388.5,1122.1,387.3,1120.6,387.3L1120.6,387.3z
			 M990.3,390.4c-1.5,0-2.7,1.2-2.7,2.7c0,1.5,1.2,2.7,2.7,2.7c1.5,0,2.7-1.2,2.7-2.7C992.9,391.6,991.7,390.4,990.3,390.4
			L990.3,390.4z M1018.7,387.2c-1.5,0-2.7,1.2-2.7,2.7c0,1.5,1.2,2.7,2.7,2.7c1.5,0,2.7-1.2,2.7-2.7
			C1021.4,388.4,1020.2,387.2,1018.7,387.2L1018.7,387.2z M1038.7,402c-1.5,0-2.7,1.2-2.7,2.7c0,1.5,1.2,2.7,2.7,2.7
			c1.5,0,2.7-1.2,2.7-2.7C1041.3,403.2,1040.1,402,1038.7,402L1038.7,402z M1054.6,388.1c-1.5,0-2.7,1.2-2.7,2.7
			c0,1.5,1.2,2.7,2.7,2.7s2.7-1.2,2.7-2.7C1057.3,389.3,1056.1,388.1,1054.6,388.1L1054.6,388.1z M1073,398.4
			c-1.5,0-2.7,1.2-2.7,2.7c0,1.5,1.2,2.7,2.7,2.7c1.5,0,2.7-1.2,2.7-2.7C1075.7,399.6,1074.5,398.4,1073,398.4L1073,398.4z
			 M1090.7,398.9c-1.5,0-2.7,1.2-2.7,2.7c0,1.5,1.2,2.7,2.7,2.7s2.7-1.2,2.7-2.7C1093.4,400.1,1092.2,398.9,1090.7,398.9
			L1090.7,398.9z M1107.4,413.7c-1.5,0-2.7,1.2-2.7,2.7c0,1.5,1.2,2.7,2.7,2.7c1.5,0,2.7-1.2,2.7-2.7
			C1110.1,414.9,1108.9,413.7,1107.4,413.7L1107.4,413.7z M1130.1,406.3c-1.5,0-2.7,1.2-2.7,2.7c0,1.5,1.2,2.7,2.7,2.7
			c1.5,0,2.7-1.2,2.7-2.7C1132.7,407.5,1131.5,406.3,1130.1,406.3L1130.1,406.3z M1152.3,407.2c-1.5,0-2.7,1.2-2.7,2.7
			c0,1.5,1.2,2.7,2.7,2.7s2.7-1.2,2.7-2.7C1155,408.4,1153.8,407.2,1152.3,407.2L1152.3,407.2z M1169.4,391c-1.5,0-2.7,1.2-2.7,2.7
			c0,1.5,1.2,2.7,2.7,2.7c1.5,0,2.7-1.2,2.7-2.7C1172.1,392.2,1170.9,391,1169.4,391L1169.4,391z M1178.7,407.6
			c-1.5,0-2.7,1.2-2.7,2.7s1.2,2.7,2.7,2.7s2.7-1.2,2.7-2.7S1180.1,407.6,1178.7,407.6L1178.7,407.6z M1204.2,390.4
			c-1.5,0-2.7,1.2-2.7,2.7c0,1.5,1.2,2.7,2.7,2.7s2.7-1.2,2.7-2.7C1206.8,391.6,1205.6,390.4,1204.2,390.4L1204.2,390.4z
			 M1208.8,424.2c-1.5,0-2.7,1.2-2.7,2.7c0,1.5,1.2,2.7,2.7,2.7c1.5,0,2.7-1.2,2.7-2.7C1211.4,425.4,1210.2,424.2,1208.8,424.2
			L1208.8,424.2z M1201.8,405.7c-1.5,0-2.7,1.2-2.7,2.7c0,1.5,1.2,2.7,2.7,2.7s2.7-1.2,2.7-2.7
			C1204.5,406.9,1203.3,405.7,1201.8,405.7L1201.8,405.7z M1228,399.6c-1.5,0-2.7,1.2-2.7,2.7c0,1.5,1.2,2.7,2.7,2.7
			s2.7-1.2,2.7-2.7C1230.6,400.8,1229.5,399.6,1228,399.6L1228,399.6z M1243.7,426.4c-1.5,0-2.7,1.2-2.7,2.7c0,1.5,1.2,2.7,2.7,2.7
			s2.7-1.2,2.7-2.7C1246.4,427.6,1245.2,426.4,1243.7,426.4L1243.7,426.4z M1262.5,399.1c-1.5,0-2.7,1.2-2.7,2.7s1.2,2.7,2.7,2.7
			c1.5,0,2.7-1.2,2.7-2.7S1264,399.1,1262.5,399.1L1262.5,399.1z M1256.5,410c-1.5,0-2.7,1.2-2.7,2.7c0,1.5,1.2,2.7,2.7,2.7
			s2.7-1.2,2.7-2.7C1259.1,411.2,1257.9,410,1256.5,410L1256.5,410z M1383.5,449.4c-1.5,0-2.7,1.2-2.7,2.7s1.2,2.7,2.7,2.7
			s2.7-1.2,2.7-2.7S1385,449.4,1383.5,449.4L1383.5,449.4z M1320.6,430.8c-1.5,0-2.7,1.2-2.7,2.7c0,1.5,1.2,2.7,2.7,2.7
			s2.7-1.2,2.7-2.7C1323.2,432,1322.1,430.8,1320.6,430.8L1320.6,430.8z M1294.7,409.8c-1.5,0-2.7,1.2-2.7,2.7
			c0,1.5,1.2,2.7,2.7,2.7c1.5,0,2.7-1.2,2.7-2.7C1297.3,410.9,1296.1,409.8,1294.7,409.8L1294.7,409.8z M1290.5,436.6
			c-1.5,0-2.7,1.2-2.7,2.7c0,1.5,1.2,2.7,2.7,2.7c1.5,0,2.7-1.2,2.7-2.7C1293.1,437.8,1292,436.6,1290.5,436.6L1290.5,436.6z
			 M1271.1,425.5c-1.5,0-2.7,1.2-2.7,2.7c0,1.5,1.2,2.7,2.7,2.7s2.7-1.2,2.7-2.7C1273.7,426.7,1272.5,425.5,1271.1,425.5
			L1271.1,425.5z M1281.5,414.2c-1.5,0-2.7,1.2-2.7,2.7c0,1.5,1.2,2.7,2.7,2.7s2.7-1.2,2.7-2.7
			C1284.1,415.4,1282.9,414.2,1281.5,414.2L1281.5,414.2z M1318.5,442.9c-1.5,0-2.7,1.2-2.7,2.7s1.2,2.7,2.7,2.7s2.7-1.2,2.7-2.7
			S1320,442.9,1318.5,442.9L1318.5,442.9z M1309.2,420.4c-1.5,0-2.7,1.2-2.7,2.7c0,1.5,1.2,2.7,2.7,2.7c1.5,0,2.7-1.2,2.7-2.7
			C1311.9,421.6,1310.7,420.4,1309.2,420.4L1309.2,420.4z M1337.7,417.2c-1.5,0-2.7,1.2-2.7,2.7c0,1.5,1.2,2.7,2.7,2.7
			s2.7-1.2,2.7-2.7C1340.4,418.4,1339.2,417.2,1337.7,417.2L1337.7,417.2z M1357.6,432c-1.5,0-2.7,1.2-2.7,2.7
			c0,1.5,1.2,2.7,2.7,2.7s2.7-1.2,2.7-2.7C1360.3,433.2,1359.1,432,1357.6,432L1357.6,432z M1373.6,418.1c-1.5,0-2.7,1.2-2.7,2.7
			c0,1.5,1.2,2.7,2.7,2.7c1.5,0,2.7-1.2,2.7-2.7C1376.3,419.3,1375.1,418.1,1373.6,418.1L1373.6,418.1z M773.3,392.6
			c1.5,0,2.7,1.2,2.7,2.7c0,1.5-1.2,2.7-2.7,2.7c-1.5,0-2.7-1.2-2.7-2.7C770.6,393.8,771.8,392.6,773.3,392.6L773.3,392.6z
			 M554.8,375.9c1.5,0,2.7,1.2,2.7,2.7c0,1.5-1.2,2.7-2.7,2.7c-1.5,0-2.7-1.2-2.7-2.7C552.1,377.1,553.3,375.9,554.8,375.9
			L554.8,375.9z M702.9,390.1c1.5,0,2.7,1.2,2.7,2.7c0,1.5-1.2,2.7-2.7,2.7c-1.5,0-2.7-1.2-2.7-2.7
			C700.3,391.3,701.4,390.1,702.9,390.1L702.9,390.1z M728.8,369c1.5,0,2.7,1.2,2.7,2.7c0,1.5-1.2,2.7-2.7,2.7
			c-1.5,0-2.7-1.2-2.7-2.7C726.2,370.2,727.4,369,728.8,369L728.8,369z M733,395.9c1.5,0,2.7,1.2,2.7,2.7c0,1.5-1.2,2.7-2.7,2.7
			c-1.5,0-2.7-1.2-2.7-2.7C730.3,397,731.5,395.9,733,395.9L733,395.9z M742,373.4c1.5,0,2.7,1.2,2.7,2.7c0,1.5-1.2,2.7-2.7,2.7
			c-1.5,0-2.7-1.2-2.7-2.7C739.4,374.6,740.6,373.4,742,373.4L742,373.4z M714.3,379.6c1.5,0,2.7,1.2,2.7,2.7c0,1.5-1.2,2.7-2.7,2.7
			c-1.5,0-2.7-1.2-2.7-2.7C711.6,380.8,712.8,379.6,714.3,379.6L714.3,379.6z M685.8,376.4c1.5,0,2.7,1.2,2.7,2.7
			c0,1.5-1.2,2.7-2.7,2.7c-1.5,0-2.7-1.2-2.7-2.7C683.1,377.6,684.3,376.4,685.8,376.4L685.8,376.4z M665.9,391.2
			c1.5,0,2.7,1.2,2.7,2.7c0,1.5-1.2,2.7-2.7,2.7c-1.5,0-2.7-1.2-2.7-2.7C663.2,392.4,664.4,391.2,665.9,391.2L665.9,391.2z
			 M649.9,377.3c1.5,0,2.7,1.2,2.7,2.7c0,1.5-1.2,2.7-2.7,2.7c-1.5,0-2.7-1.2-2.7-2.7C647.2,378.5,648.4,377.3,649.9,377.3
			L649.9,377.3z M631.5,387.6c1.5,0,2.7,1.2,2.7,2.7c0,1.5-1.2,2.7-2.7,2.7c-1.5,0-2.7-1.2-2.7-2.7
			C628.8,388.8,630,387.6,631.5,387.6L631.5,387.6z M593.1,393.9c1.5,0,2.7,1.2,2.7,2.7c0,1.5-1.2,2.7-2.7,2.7
			c-1.5,0-2.7-1.2-2.7-2.7C590.4,395.1,591.6,393.9,593.1,393.9L593.1,393.9z M619,372.8c1.5,0,2.7,1.2,2.7,2.7
			c0,1.5-1.2,2.7-2.7,2.7c-1.5,0-2.7-1.2-2.7-2.7C616.3,374,617.5,372.8,619,372.8L619,372.8z M591.7,369.8c1.5,0,2.7,1.2,2.7,2.7
			c0,1.5-1.2,2.7-2.7,2.7c-1.5,0-2.7-1.2-2.7-2.7C589,371,590.2,369.8,591.7,369.8L591.7,369.8z M632.2,377.2c1.5,0,2.7,1.2,2.7,2.7
			s-1.2,2.7-2.7,2.7c-1.5,0-2.7-1.2-2.7-2.7S630.7,377.2,632.2,377.2L632.2,377.2z M604.4,383.4c1.5,0,2.7,1.2,2.7,2.7
			c0,1.5-1.2,2.7-2.7,2.7s-2.7-1.2-2.7-2.7C601.7,384.6,602.9,383.4,604.4,383.4L604.4,383.4z M575.9,380.2c1.5,0,2.7,1.2,2.7,2.7
			c0,1.5-1.2,2.7-2.7,2.7c-1.5,0-2.7-1.2-2.7-2.7C573.3,381.4,574.5,380.2,575.9,380.2L575.9,380.2z M556,395c1.5,0,2.7,1.2,2.7,2.7
			c0,1.5-1.2,2.7-2.7,2.7c-1.5,0-2.7-1.2-2.7-2.7C553.4,396.2,554.6,395,556,395L556,395z M540.1,381.1c1.5,0,2.7,1.2,2.7,2.7
			c0,1.5-1.2,2.7-2.7,2.7c-1.5,0-2.7-1.2-2.7-2.7C537.4,382.3,538.6,381.1,540.1,381.1L540.1,381.1z M521.7,391.4
			c1.5,0,2.7,1.2,2.7,2.7c0,1.5-1.2,2.7-2.7,2.7c-1.5,0-2.7-1.2-2.7-2.7C519,392.7,520.2,391.4,521.7,391.4L521.7,391.4z
			 M489.1,383.8c1.5,0,2.7,1.2,2.7,2.7s-1.2,2.7-2.7,2.7s-2.7-1.2-2.7-2.7S487.7,383.8,489.1,383.8L489.1,383.8z M481.5,396.4
			c1.5,0,2.7,1.2,2.7,2.7c0,1.5-1.2,2.7-2.7,2.7s-2.7-1.2-2.7-2.7C478.8,397.6,480,396.4,481.5,396.4L481.5,396.4z M497.3,388.2
			c1.5,0,2.7,1.2,2.7,2.7c0,1.5-1.2,2.7-2.7,2.7s-2.7-1.2-2.7-2.7C494.7,389.4,495.9,388.2,497.3,388.2L497.3,388.2z M468.8,380
			c1.5,0,2.7,1.2,2.7,2.7s-1.2,2.7-2.7,2.7s-2.7-1.2-2.7-2.7S467.3,380,468.8,380L468.8,380z M404.6,400.8c1.5,0,2.7,1.2,2.7,2.7
			c0,1.5-1.2,2.7-2.7,2.7s-2.7-1.2-2.7-2.7C402,402,403.2,400.8,404.6,400.8L404.6,400.8z M430.6,379.7c1.5,0,2.7,1.2,2.7,2.7
			c0,1.5-1.2,2.7-2.7,2.7s-2.7-1.2-2.7-2.7C427.9,380.9,429.1,379.7,430.6,379.7L430.6,379.7z M434.7,406.6c1.5,0,2.7,1.2,2.7,2.7
			c0,1.5-1.2,2.7-2.7,2.7s-2.7-1.2-2.7-2.7C432.1,407.8,433.3,406.6,434.7,406.6L434.7,406.6z M454.2,395.5c1.5,0,2.7,1.2,2.7,2.7
			c0,1.5-1.2,2.7-2.7,2.7s-2.7-1.2-2.7-2.7C451.5,396.7,452.7,395.5,454.2,395.5L454.2,395.5z M443.8,384.2c1.5,0,2.7,1.2,2.7,2.7
			c0,1.5-1.2,2.7-2.7,2.7s-2.7-1.2-2.7-2.7C441.1,385.3,442.3,384.2,443.8,384.2L443.8,384.2z M290.8,385.4c1.5,0,2.7,1.2,2.7,2.7
			c0,1.5-1.2,2.7-2.7,2.7s-2.7-1.2-2.7-2.7C288.1,386.6,289.3,385.4,290.8,385.4L290.8,385.4z M416,390.4c1.5,0,2.7,1.2,2.7,2.7
			c0,1.5-1.2,2.7-2.7,2.7s-2.7-1.2-2.7-2.7C413.3,391.6,414.5,390.4,416,390.4L416,390.4z M387.5,387.2c1.5,0,2.7,1.2,2.7,2.7
			c0,1.5-1.2,2.7-2.7,2.7s-2.7-1.2-2.7-2.7C384.8,388.4,386.1,387.2,387.5,387.2L387.5,387.2z M367.6,402c1.5,0,2.7,1.2,2.7,2.7
			c0,1.5-1.2,2.7-2.7,2.7s-2.7-1.2-2.7-2.7C365,403.2,366.2,402,367.6,402L367.6,402z M351.6,388.1c1.5,0,2.7,1.2,2.7,2.7
			c0,1.5-1.2,2.7-2.7,2.7s-2.7-1.2-2.7-2.7C349,389.3,350.2,388.1,351.6,388.1L351.6,388.1z M333.2,398.4c1.5,0,2.7,1.2,2.7,2.7
			c0,1.5-1.2,2.7-2.7,2.7s-2.7-1.2-2.7-2.7C330.6,399.6,331.7,398.4,333.2,398.4L333.2,398.4z M315.5,398.9c1.5,0,2.7,1.2,2.7,2.7
			c0,1.5-1.2,2.7-2.7,2.7s-2.7-1.2-2.7-2.7C312.9,400.1,314,398.9,315.5,398.9L315.5,398.9z M298.9,413.7c1.5,0,2.7,1.2,2.7,2.7
			c0,1.5-1.2,2.7-2.7,2.7s-2.7-1.2-2.7-2.7C296.2,414.9,297.4,413.7,298.9,413.7L298.9,413.7z M276.2,406.3c1.5,0,2.7,1.2,2.7,2.7
			c0,1.5-1.2,2.7-2.7,2.7s-2.7-1.2-2.7-2.7C273.5,407.5,274.7,406.3,276.2,406.3L276.2,406.3z M253,405.3c1.5,0,2.7,1.2,2.7,2.7
			c0,1.5-1.2,2.7-2.7,2.7s-2.7-1.2-2.7-2.7C250.3,406.5,251.5,405.3,253,405.3L253,405.3z M235.9,389.1c1.5,0,2.7,1.2,2.7,2.7
			c0,1.5-1.2,2.7-2.7,2.7s-2.7-1.2-2.7-2.7C233.2,390.3,234.4,389.1,235.9,389.1L235.9,389.1z M226.6,405.7c1.5,0,2.7,1.2,2.7,2.7
			c0,1.5-1.2,2.7-2.7,2.7s-2.7-1.2-2.7-2.7C224,406.9,225.2,405.7,226.6,405.7L226.6,405.7z M201.2,388.6c1.5,0,2.7,1.2,2.7,2.7
			c0,1.5-1.2,2.7-2.7,2.7s-2.7-1.2-2.7-2.7C198.5,389.8,199.7,388.6,201.2,388.6L201.2,388.6z M196.6,422.4c1.5,0,2.7,1.2,2.7,2.7
			c0,1.5-1.2,2.7-2.7,2.7s-2.7-1.2-2.7-2.7C193.9,423.6,195.1,422.4,196.6,422.4L196.6,422.4z M203.5,403.8c1.5,0,2.7,1.2,2.7,2.7
			s-1.2,2.7-2.7,2.7s-2.7-1.2-2.7-2.7S202,403.8,203.5,403.8L203.5,403.8z M177.3,397.7c1.5,0,2.7,1.2,2.7,2.7
			c0,1.5-1.2,2.7-2.7,2.7c-1.5,0-2.7-1.2-2.7-2.7C174.7,398.9,175.9,397.7,177.3,397.7L177.3,397.7z M161.6,424.6
			c1.5,0,2.7,1.2,2.7,2.7c0,1.5-1.2,2.7-2.7,2.7c-1.5,0-2.7-1.2-2.7-2.7C158.9,425.8,160.1,424.6,161.6,424.6L161.6,424.6z
			 M142.8,397.3c1.5,0,2.7,1.2,2.7,2.7c0,1.5-1.2,2.7-2.7,2.7s-2.7-1.2-2.7-2.7C140.2,398.4,141.4,397.3,142.8,397.3L142.8,397.3z
			 M148.9,408.1c1.5,0,2.7,1.2,2.7,2.7c0,1.5-1.2,2.7-2.7,2.7c-1.5,0-2.7-1.2-2.7-2.7C146.2,409.3,147.4,408.1,148.9,408.1
			L148.9,408.1z M87.5,400.3c1.5,0,2.7,1.2,2.7,2.7c0,1.5-1.2,2.7-2.7,2.7c-1.5,0-2.7-1.2-2.7-2.7C84.9,401.5,86,400.3,87.5,400.3
			L87.5,400.3z M84.8,429c1.5,0,2.7,1.2,2.7,2.7c0,1.5-1.2,2.7-2.7,2.7s-2.7-1.2-2.7-2.7C82.1,430.2,83.3,429,84.8,429L84.8,429z
			 M110.7,407.9c1.5,0,2.7,1.2,2.7,2.7s-1.2,2.7-2.7,2.7s-2.7-1.2-2.7-2.7S109.2,407.9,110.7,407.9L110.7,407.9z M114.8,434.8
			c1.5,0,2.7,1.2,2.7,2.7c0,1.5-1.2,2.7-2.7,2.7c-1.5,0-2.7-1.2-2.7-2.7C112.2,436,113.4,434.8,114.8,434.8L114.8,434.8z
			 M134.3,423.7c1.5,0,2.7,1.2,2.7,2.7c0,1.5-1.2,2.7-2.7,2.7s-2.7-1.2-2.7-2.7C131.6,424.9,132.8,423.7,134.3,423.7L134.3,423.7z
			 M123.9,412.3c1.5,0,2.7,1.2,2.7,2.7c0,1.5-1.2,2.7-2.7,2.7s-2.7-1.2-2.7-2.7C121.2,413.5,122.4,412.3,123.9,412.3L123.9,412.3z
			 M86.8,441c1.5,0,2.7,1.2,2.7,2.7c0,1.5-1.2,2.7-2.7,2.7s-2.7-1.2-2.7-2.7C84.2,442.2,85.3,441,86.8,441L86.8,441z M96.1,418.6
			c1.5,0,2.7,1.2,2.7,2.7c0,1.5-1.2,2.7-2.7,2.7s-2.7-1.2-2.7-2.7C93.4,419.7,94.6,418.6,96.1,418.6L96.1,418.6z M67.6,415.3
			c1.5,0,2.7,1.2,2.7,2.7c0,1.5-1.2,2.7-2.7,2.7c-1.5,0-2.7-1.2-2.7-2.7C64.9,416.5,66.1,415.3,67.6,415.3L67.6,415.3z M47.7,430.1
			c1.5,0,2.7,1.2,2.7,2.7c0,1.5-1.2,2.7-2.7,2.7s-2.7-1.2-2.7-2.7C45,431.3,46.2,430.1,47.7,430.1L47.7,430.1z M31.7,416.2
			c1.5,0,2.7,1.2,2.7,2.7s-1.2,2.7-2.7,2.7s-2.7-1.2-2.7-2.7S30.3,416.2,31.7,416.2L31.7,416.2z"/>
		<path fill-rule="evenodd" clip-rule="evenodd" fill="#5CFFF4" d="M24.1,437.2c-1.5,0-2.7,1.2-2.7,2.7c0,1.5,1.2,2.7,2.7,2.7
			s2.7-1.2,2.7-2.7C26.8,438.3,25.6,437.2,24.1,437.2L24.1,437.2z M1379.9,437.2c1.5,0,2.7,1.2,2.7,2.7c0,1.5-1.2,2.7-2.7,2.7
			s-2.7-1.2-2.7-2.7C1377.3,438.3,1378.5,437.2,1379.9,437.2L1379.9,437.2z M718.8,392.3c1.5,0,2.7,1.2,2.7,2.7
			c0,1.5-1.2,2.7-2.7,2.7c-1.5,0-2.7-1.2-2.7-2.7C716.2,393.5,717.4,392.3,718.8,392.3L718.8,392.3z M763.5,369.2
			c1.5,0,2.7,1.2,2.7,2.7c0,1.5-1.2,2.7-2.7,2.7c-1.5,0-2.7-1.2-2.7-2.7C760.8,370.3,762.1,369.2,763.5,369.2L763.5,369.2z
			 M772.3,383.1c1.5,0,2.7,1.2,2.7,2.7c0,1.5-1.2,2.7-2.7,2.7c-1.5,0-2.7-1.2-2.7-2.7C769.7,384.3,770.8,383.1,772.3,383.1
			L772.3,383.1z M735.3,382.8c1.5,0,2.7,1.2,2.7,2.7c0,1.5-1.2,2.7-2.7,2.7c-1.5,0-2.7-1.2-2.7-2.7
			C732.6,384,733.8,382.8,735.3,382.8L735.3,382.8z M789,395.8c1.5,0,2.7,1.2,2.7,2.7c0,1.5-1.2,2.7-2.7,2.7c-1.5,0-2.7-1.2-2.7-2.7
			C786.3,397,787.5,395.8,789,395.8L789,395.8z M877.3,375.2c1.5,0,2.7,1.2,2.7,2.7c0,1.5-1.2,2.7-2.7,2.7c-1.5,0-2.7-1.2-2.7-2.7
			C874.6,376.4,875.8,375.2,877.3,375.2L877.3,375.2z M830.8,370.8c1.5,0,2.7,1.2,2.7,2.7c0,1.5-1.2,2.7-2.7,2.7
			c-1.5,0-2.7-1.2-2.7-2.7C828.1,372,829.3,370.8,830.8,370.8L830.8,370.8z M835.9,393.9c1.5,0,2.7,1.2,2.7,2.7
			c0,1.5-1.2,2.7-2.7,2.7c-1.5,0-2.7-1.2-2.7-2.7C833.2,395.2,834.4,393.9,835.9,393.9L835.9,393.9z M918.2,374.5
			c1.5,0,2.7,1.2,2.7,2.7c0,1.5-1.2,2.7-2.7,2.7c-1.5,0-2.7-1.2-2.7-2.7C915.6,375.7,916.8,374.5,918.2,374.5L918.2,374.5z
			 M891.4,398.8c1.5,0,2.7,1.2,2.7,2.7c0,1.5-1.2,2.7-2.7,2.7c-1.5,0-2.7-1.2-2.7-2.7C888.7,400,889.9,398.8,891.4,398.8
			L891.4,398.8z M897,373.1c1.5,0,2.7,1.2,2.7,2.7c0,1.5-1.2,2.7-2.7,2.7c-1.5,0-2.7-1.2-2.7-2.7C894.3,374.3,895.5,373.1,897,373.1
			L897,373.1z M935.1,390.9c1.5,0,2.7,1.2,2.7,2.7c0,1.5-1.2,2.7-2.7,2.7c-1.5,0-2.7-1.2-2.7-2.7
			C932.5,392.1,933.7,390.9,935.1,390.9L935.1,390.9z M953.4,373.3c1.5,0,2.7,1.2,2.7,2.7s-1.2,2.7-2.7,2.7c-1.5,0-2.7-1.2-2.7-2.7
			S952,373.3,953.4,373.3L953.4,373.3z M984.7,405.5c1.5,0,2.7,1.2,2.7,2.7c0,1.5-1.2,2.7-2.7,2.7c-1.5,0-2.7-1.2-2.7-2.7
			C982,406.7,983.2,405.5,984.7,405.5L984.7,405.5z M967.6,393.7c1.5,0,2.7,1.2,2.7,2.7c0,1.5-1.2,2.7-2.7,2.7
			c-1.5,0-2.7-1.2-2.7-2.7C964.9,394.9,966.1,393.7,967.6,393.7L967.6,393.7z M998.8,378.9c1.5,0,2.7,1.2,2.7,2.7
			c0,1.5-1.2,2.7-2.7,2.7c-1.5,0-2.7-1.2-2.7-2.7C996.1,380.1,997.3,378.9,998.8,378.9L998.8,378.9z M1020.1,404.2
			c1.5,0,2.7,1.2,2.7,2.7c0,1.5-1.2,2.7-2.7,2.7c-1.5,0-2.7-1.2-2.7-2.7C1017.5,405.3,1018.6,404.2,1020.1,404.2L1020.1,404.2z
			 M1027.3,376.3c1.5,0,2.7,1.2,2.7,2.7c0,1.5-1.2,2.7-2.7,2.7s-2.7-1.2-2.7-2.7C1024.6,377.5,1025.8,376.3,1027.3,376.3
			L1027.3,376.3z M1069.4,384.4c1.5,0,2.7,1.2,2.7,2.7c0,1.5-1.2,2.7-2.7,2.7s-2.7-1.2-2.7-2.7
			C1066.8,385.6,1068,384.4,1069.4,384.4L1069.4,384.4z M1055.5,400.9c1.5,0,2.7,1.2,2.7,2.7c0,1.5-1.2,2.7-2.7,2.7
			c-1.5,0-2.7-1.2-2.7-2.7C1052.9,402.1,1054.1,400.9,1055.5,400.9L1055.5,400.9z M1074.5,412c1.5,0,2.7,1.2,2.7,2.7
			c0,1.5-1.2,2.7-2.7,2.7s-2.7-1.2-2.7-2.7C1071.8,413.2,1073,412,1074.5,412L1074.5,412z M1101.8,400.2c1.5,0,2.7,1.2,2.7,2.7
			c0,1.5-1.2,2.7-2.7,2.7s-2.7-1.2-2.7-2.7C1099.2,401.4,1100.4,400.2,1101.8,400.2L1101.8,400.2z M1089.3,384.2
			c1.5,0,2.7,1.2,2.7,2.7c0,1.5-1.2,2.7-2.7,2.7c-1.5,0-2.7-1.2-2.7-2.7C1086.7,385.4,1087.9,384.2,1089.3,384.2L1089.3,384.2z
			 M1149.3,421c1.5,0,2.7,1.2,2.7,2.7c0,1.5-1.2,2.7-2.7,2.7c-1.5,0-2.7-1.2-2.7-2.7C1146.6,422.2,1147.8,421,1149.3,421L1149.3,421
			z M1138.2,388.6c1.5,0,2.7,1.2,2.7,2.7c0,1.5-1.2,2.7-2.7,2.7c-1.5,0-2.7-1.2-2.7-2.7C1135.5,389.8,1136.7,388.6,1138.2,388.6
			L1138.2,388.6z M1183.8,389.1c1.5,0,2.7,1.2,2.7,2.7c0,1.5-1.2,2.7-2.7,2.7c-1.5,0-2.7-1.2-2.7-2.7
			C1181.1,390.3,1182.3,389.1,1183.8,389.1L1183.8,389.1z M1175.7,419.9c1.5,0,2.7,1.2,2.7,2.7s-1.2,2.7-2.7,2.7
			c-1.5,0-2.7-1.2-2.7-2.7S1174.2,419.9,1175.7,419.9L1175.7,419.9z M1268.7,409.7c1.5,0,2.7,1.2,2.7,2.7c0,1.5-1.2,2.7-2.7,2.7
			s-2.7-1.2-2.7-2.7C1266.1,410.9,1267.3,409.7,1268.7,409.7L1268.7,409.7z M1244.4,390.7c1.5,0,2.7,1.2,2.7,2.7
			c0,1.5-1.2,2.7-2.7,2.7s-2.7-1.2-2.7-2.7C1241.7,391.9,1242.9,390.7,1244.4,390.7L1244.4,390.7z M1218.5,412.7
			c1.5,0,2.7,1.2,2.7,2.7c0,1.5-1.2,2.7-2.7,2.7s-2.7-1.2-2.7-2.7C1215.8,413.9,1217,412.7,1218.5,412.7L1218.5,412.7z
			 M1233.8,413.9c1.5,0,2.7,1.2,2.7,2.7c0,1.5-1.2,2.7-2.7,2.7s-2.7-1.2-2.7-2.7C1231.1,415,1232.3,413.9,1233.8,413.9L1233.8,413.9
			z M1222.4,428.2c1.5,0,2.7,1.2,2.7,2.7c0,1.5-1.2,2.7-2.7,2.7c-1.5,0-2.7-1.2-2.7-2.7C1219.8,429.4,1221,428.2,1222.4,428.2
			L1222.4,428.2z M1268.3,436.1c1.5,0,2.7,1.2,2.7,2.7c0,1.5-1.2,2.7-2.7,2.7s-2.7-1.2-2.7-2.7
			C1265.6,437.3,1266.8,436.1,1268.3,436.1L1268.3,436.1z M1290,423.8c1.5,0,2.7,1.2,2.7,2.7s-1.2,2.7-2.7,2.7
			c-1.5,0-2.7-1.2-2.7-2.7S1288.6,423.8,1290,423.8L1290,423.8z M1254.4,427.7c1.5,0,2.7,1.2,2.7,2.7c0,1.5-1.2,2.7-2.7,2.7
			s-2.7-1.2-2.7-2.7C1251.7,428.9,1252.9,427.7,1254.4,427.7L1254.4,427.7z M1291.6,395.7c1.5,0,2.7,1.2,2.7,2.7
			c0,1.5-1.2,2.7-2.7,2.7s-2.7-1.2-2.7-2.7C1289,396.9,1290.2,395.7,1291.6,395.7L1291.6,395.7z M1334.2,432.7
			c1.5,0,2.7,1.2,2.7,2.7c0,1.5-1.2,2.7-2.7,2.7s-2.7-1.2-2.7-2.7C1331.6,433.9,1332.8,432.7,1334.2,432.7L1334.2,432.7z
			 M1318.5,411.9c1.5,0,2.7,1.2,2.7,2.7c0,1.5-1.2,2.7-2.7,2.7c-1.5,0-2.7-1.2-2.7-2.7C1315.8,413.1,1317,411.9,1318.5,411.9
			L1318.5,411.9z M1354.6,402.6c1.5,0,2.7,1.2,2.7,2.7c0,1.5-1.2,2.7-2.7,2.7c-1.5,0-2.7-1.2-2.7-2.7
			C1351.9,403.8,1353.1,402.6,1354.6,402.6L1354.6,402.6z M1390.3,450.1c1.5,0,2.7,1.2,2.7,2.7c0,1.5-1.2,2.7-2.7,2.7
			c-1.5,0-2.7-1.2-2.7-2.7C1387.6,451.3,1388.8,450.1,1390.3,450.1L1390.3,450.1z M1353.4,442c1.5,0,2.7,1.2,2.7,2.7
			c0,1.5-1.2,2.7-2.7,2.7s-2.7-1.2-2.7-2.7C1350.8,443.2,1352,442,1353.4,442L1353.4,442z M1384.5,407c1.5,0,2.7,1.2,2.7,2.7
			c0,1.5-1.2,2.7-2.7,2.7c-1.5,0-2.7-1.2-2.7-2.7C1381.8,408.2,1383,407,1384.5,407L1384.5,407z M1358.1,417.7
			c1.5,0,2.7,1.2,2.7,2.7c0,1.5-1.2,2.7-2.7,2.7s-2.7-1.2-2.7-2.7C1355.4,418.9,1356.6,417.7,1358.1,417.7L1358.1,417.7z
			 M685.3,392.3c-1.5,0-2.7,1.2-2.7,2.7c0,1.5,1.2,2.7,2.7,2.7c1.5,0,2.7-1.2,2.7-2.7C687.9,393.5,686.7,392.3,685.3,392.3
			L685.3,392.3z M699.4,369.6c-1.5,0-2.7,1.2-2.7,2.7s1.2,2.7,2.7,2.7c1.5,0,2.7-1.2,2.7-2.7S700.8,369.6,699.4,369.6L699.4,369.6z
			 M640.6,369.2c-1.5,0-2.7,1.2-2.7,2.7c0,1.5,1.2,2.7,2.7,2.7c1.5,0,2.7-1.2,2.7-2.7C643.2,370.3,642.1,369.2,640.6,369.2
			L640.6,369.2z M653.3,393.5c-1.5,0-2.7,1.2-2.7,2.7c0,1.5,1.2,2.7,2.7,2.7c1.5,0,2.7-1.2,2.7-2.7
			C656,394.7,654.8,393.5,653.3,393.5L653.3,393.5z M660.7,369.4c-1.5,0-2.7,1.2-2.7,2.7c0,1.5,1.2,2.7,2.7,2.7
			c1.5,0,2.7-1.2,2.7-2.7C663.4,370.6,662.2,369.4,660.7,369.4L660.7,369.4z M615.1,395.8c-1.5,0-2.7,1.2-2.7,2.7
			c0,1.5,1.2,2.7,2.7,2.7c1.5,0,2.7-1.2,2.7-2.7C617.8,397,616.6,395.8,615.1,395.8L615.1,395.8z M526.8,375.2
			c-1.5,0-2.7,1.2-2.7,2.7c0,1.5,1.2,2.7,2.7,2.7c1.5,0,2.7-1.2,2.7-2.7C529.5,376.4,528.3,375.2,526.8,375.2L526.8,375.2z
			 M573.4,370.8c-1.5,0-2.7,1.2-2.7,2.7c0,1.5,1.2,2.7,2.7,2.7c1.5,0,2.7-1.2,2.7-2.7C576,372,574.8,370.8,573.4,370.8L573.4,370.8z
			 M568.3,393.9c-1.5,0-2.7,1.2-2.7,2.7c0,1.5,1.2,2.7,2.7,2.7c1.5,0,2.7-1.2,2.7-2.7C570.9,395.2,569.7,393.9,568.3,393.9
			L568.3,393.9z M485.8,374.5c-1.5,0-2.7,1.2-2.7,2.7c0,1.5,1.2,2.7,2.7,2.7s2.7-1.2,2.7-2.7C488.5,375.7,487.3,374.5,485.8,374.5
			L485.8,374.5z M512.7,398.8c-1.5,0-2.7,1.2-2.7,2.7c0,1.5,1.2,2.7,2.7,2.7c1.5,0,2.7-1.2,2.7-2.7
			C515.4,400,514.2,398.8,512.7,398.8L512.7,398.8z M507.1,373.1c-1.5,0-2.7,1.2-2.7,2.7c0,1.5,1.2,2.7,2.7,2.7s2.7-1.2,2.7-2.7
			C509.8,374.3,508.6,373.1,507.1,373.1L507.1,373.1z M468.9,390.9c-1.5,0-2.7,1.2-2.7,2.7c0,1.5,1.2,2.7,2.7,2.7s2.7-1.2,2.7-2.7
			C471.6,392.1,470.4,390.9,468.9,390.9L468.9,390.9z M450.7,373.3c-1.5,0-2.7,1.2-2.7,2.7s1.2,2.7,2.7,2.7s2.7-1.2,2.7-2.7
			S452.1,373.3,450.7,373.3L450.7,373.3z M419.4,405.5c-1.5,0-2.7,1.2-2.7,2.7c0,1.5,1.2,2.7,2.7,2.7s2.7-1.2,2.7-2.7
			C422.1,406.7,420.9,405.5,419.4,405.5L419.4,405.5z M436.5,393.7c-1.5,0-2.7,1.2-2.7,2.7c0,1.5,1.2,2.7,2.7,2.7s2.7-1.2,2.7-2.7
			C439.2,394.9,438,393.7,436.5,393.7L436.5,393.7z M405.3,378.9c-1.5,0-2.7,1.2-2.7,2.7c0,1.5,1.2,2.7,2.7,2.7s2.7-1.2,2.7-2.7
			C407.9,380.1,406.7,378.9,405.3,378.9L405.3,378.9z M384,404.2c-1.5,0-2.7,1.2-2.7,2.7c0,1.5,1.2,2.7,2.7,2.7s2.7-1.2,2.7-2.7
			C386.7,405.3,385.5,404.2,384,404.2L384,404.2z M376.8,376.3c-1.5,0-2.7,1.2-2.7,2.7c0,1.5,1.2,2.7,2.7,2.7s2.7-1.2,2.7-2.7
			C379.5,377.5,378.3,376.3,376.8,376.3L376.8,376.3z M334.7,384.4c-1.5,0-2.7,1.2-2.7,2.7c0,1.5,1.2,2.7,2.7,2.7s2.7-1.2,2.7-2.7
			C337.3,385.6,336.2,384.4,334.7,384.4L334.7,384.4z M348.6,400.9c-1.5,0-2.7,1.2-2.7,2.7c0,1.5,1.2,2.7,2.7,2.7s2.7-1.2,2.7-2.7
			C351.2,402.1,350.1,400.9,348.6,400.9L348.6,400.9z M329.6,412c-1.5,0-2.7,1.2-2.7,2.7c0,1.5,1.2,2.7,2.7,2.7s2.7-1.2,2.7-2.7
			C332.3,413.2,331,412,329.6,412L329.6,412z M302.3,400.2c-1.5,0-2.7,1.2-2.7,2.7c0,1.5,1.2,2.7,2.7,2.7s2.7-1.2,2.7-2.7
			C304.9,401.4,303.8,400.2,302.3,400.2L302.3,400.2z M314.8,384.2c-1.5,0-2.7,1.2-2.7,2.7c0,1.5,1.2,2.7,2.7,2.7s2.7-1.2,2.7-2.7
			C317.4,385.4,316.2,384.2,314.8,384.2L314.8,384.2z M254.8,421c-1.5,0-2.7,1.2-2.7,2.7c0,1.5,1.2,2.7,2.7,2.7
			c1.5,0,2.7-1.2,2.7-2.7C257.5,422.2,256.3,421,254.8,421L254.8,421z M265.9,388.6c-1.5,0-2.7,1.2-2.7,2.7c0,1.5,1.2,2.7,2.7,2.7
			s2.7-1.2,2.7-2.7C268.6,389.8,267.4,388.6,265.9,388.6L265.9,388.6z M220.3,389.1c-1.5,0-2.7,1.2-2.7,2.7c0,1.5,1.2,2.7,2.7,2.7
			s2.7-1.2,2.7-2.7C223,390.3,221.8,389.1,220.3,389.1L220.3,389.1z M228.4,419.9c-1.5,0-2.7,1.2-2.7,2.7s1.2,2.7,2.7,2.7
			s2.7-1.2,2.7-2.7S229.9,419.9,228.4,419.9L228.4,419.9z M135.4,409.7c-1.5,0-2.7,1.2-2.7,2.7c0,1.5,1.2,2.7,2.7,2.7
			s2.7-1.2,2.7-2.7C138,410.9,136.9,409.7,135.4,409.7L135.4,409.7z M159.7,390.7c-1.5,0-2.7,1.2-2.7,2.7c0,1.5,1.2,2.7,2.7,2.7
			s2.7-1.2,2.7-2.7C162.3,391.9,161.1,390.7,159.7,390.7L159.7,390.7z M185.6,412.7c-1.5,0-2.7,1.2-2.7,2.7c0,1.5,1.2,2.7,2.7,2.7
			c1.5,0,2.7-1.2,2.7-2.7C188.3,413.9,187.1,412.7,185.6,412.7L185.6,412.7z M170.3,413.9c-1.5,0-2.7,1.2-2.7,2.7
			c0,1.5,1.2,2.7,2.7,2.7c1.5,0,2.7-1.2,2.7-2.7C173,415,171.8,413.9,170.3,413.9L170.3,413.9z M181.7,428.2c-1.5,0-2.7,1.2-2.7,2.7
			c0,1.5,1.2,2.7,2.7,2.7s2.7-1.2,2.7-2.7C184.3,429.4,183.2,428.2,181.7,428.2L181.7,428.2z M135.8,436.1c-1.5,0-2.7,1.2-2.7,2.7
			c0,1.5,1.2,2.7,2.7,2.7s2.7-1.2,2.7-2.7C138.5,437.3,137.3,436.1,135.8,436.1L135.8,436.1z M114.1,423.8c-1.5,0-2.7,1.2-2.7,2.7
			s1.2,2.7,2.7,2.7s2.7-1.2,2.7-2.7S115.5,423.8,114.1,423.8L114.1,423.8z M149.7,427.7c-1.5,0-2.7,1.2-2.7,2.7
			c0,1.5,1.2,2.7,2.7,2.7s2.7-1.2,2.7-2.7C152.4,428.9,151.2,427.7,149.7,427.7L149.7,427.7z M112.5,395.7c-1.5,0-2.7,1.2-2.7,2.7
			c0,1.5,1.2,2.7,2.7,2.7s2.7-1.2,2.7-2.7C115.1,396.9,113.9,395.7,112.5,395.7L112.5,395.7z M69.9,432.7c-1.5,0-2.7,1.2-2.7,2.7
			c0,1.5,1.2,2.7,2.7,2.7c1.5,0,2.7-1.2,2.7-2.7C72.5,433.9,71.3,432.7,69.9,432.7L69.9,432.7z M85.6,411.9c-1.5,0-2.7,1.2-2.7,2.7
			c0,1.5,1.2,2.7,2.7,2.7c1.5,0,2.7-1.2,2.7-2.7C88.3,413.1,87.1,411.9,85.6,411.9L85.6,411.9z M49.5,402.6c-1.5,0-2.7,1.2-2.7,2.7
			c0,1.5,1.2,2.7,2.7,2.7c1.5,0,2.7-1.2,2.7-2.7C52.2,403.8,51,402.6,49.5,402.6L49.5,402.6z M13.8,450.1c-1.5,0-2.7,1.2-2.7,2.7
			c0,1.5,1.2,2.7,2.7,2.7c1.5,0,2.7-1.2,2.7-2.7C16.5,451.3,15.3,450.1,13.8,450.1L13.8,450.1z M50.7,442c-1.5,0-2.7,1.2-2.7,2.7
			c0,1.5,1.2,2.7,2.7,2.7s2.7-1.2,2.7-2.7C53.3,443.2,52.1,442,50.7,442L50.7,442z M19.6,407c-1.5,0-2.7,1.2-2.7,2.7
			c0,1.5,1.2,2.7,2.7,2.7c1.5,0,2.7-1.2,2.7-2.7C22.3,408.2,21.1,407,19.6,407L19.6,407z M46,417.7c-1.5,0-2.7,1.2-2.7,2.7
			c0,1.5,1.2,2.7,2.7,2.7c1.5,0,2.7-1.2,2.7-2.7C48.7,418.9,47.5,417.7,46,417.7L46,417.7z"/>
		<path fill-rule="evenodd" clip-rule="evenodd" fill="#5CFFF4" d="M24.1,481.2c-1.5,0-2.7,1.2-2.7,2.7c0,1.5,1.2,2.7,2.7,2.7
			s2.7-1.2,2.7-2.7C26.8,482.4,25.6,481.2,24.1,481.2L24.1,481.2z M1379.9,481.2c1.5,0,2.7,1.2,2.7,2.7c0,1.5-1.2,2.7-2.7,2.7
			s-2.7-1.2-2.7-2.7C1377.3,482.4,1378.5,481.2,1379.9,481.2L1379.9,481.2z M718.8,436.3c1.5,0,2.7,1.2,2.7,2.7
			c0,1.5-1.2,2.7-2.7,2.7c-1.5,0-2.7-1.2-2.7-2.7C716.2,437.5,717.4,436.3,718.8,436.3L718.8,436.3z M763.5,413.2
			c1.5,0,2.7,1.2,2.7,2.7c0,1.5-1.2,2.7-2.7,2.7c-1.5,0-2.7-1.2-2.7-2.7C760.8,414.4,762.1,413.2,763.5,413.2L763.5,413.2z
			 M750.8,437.5c1.5,0,2.7,1.2,2.7,2.7c0,1.5-1.2,2.7-2.7,2.7c-1.5,0-2.7-1.2-2.7-2.7C748.1,438.7,749.3,437.5,750.8,437.5
			L750.8,437.5z M733.4,422.4c1.5,0,2.7,1.2,2.7,2.7c0,1.5-1.2,2.7-2.7,2.7c-1.5,0-2.7-1.2-2.7-2.7
			C730.8,423.6,732,422.4,733.4,422.4L733.4,422.4z M789,439.8c1.5,0,2.7,1.2,2.7,2.7c0,1.5-1.2,2.7-2.7,2.7c-1.5,0-2.7-1.2-2.7-2.7
			C786.3,441,787.5,439.8,789,439.8L789,439.8z M877.3,419.2c1.5,0,2.7,1.2,2.7,2.7c0,1.5-1.2,2.7-2.7,2.7c-1.5,0-2.7-1.2-2.7-2.7
			C874.6,420.4,875.8,419.2,877.3,419.2L877.3,419.2z M830.8,414.8c1.5,0,2.7,1.2,2.7,2.7c0,1.5-1.2,2.7-2.7,2.7
			c-1.5,0-2.7-1.2-2.7-2.7C828.1,416,829.3,414.8,830.8,414.8L830.8,414.8z M835.9,438c1.5,0,2.7,1.2,2.7,2.7s-1.2,2.7-2.7,2.7
			c-1.5,0-2.7-1.2-2.7-2.7S834.4,438,835.9,438L835.9,438z M945.6,448.4c1.5,0,2.7,1.2,2.7,2.7c0,1.5-1.2,2.7-2.7,2.7
			c-1.5,0-2.7-1.2-2.7-2.7C942.9,449.6,944.1,448.4,945.6,448.4L945.6,448.4z M891.4,442.8c1.5,0,2.7,1.2,2.7,2.7
			c0,1.5-1.2,2.7-2.7,2.7c-1.5,0-2.7-1.2-2.7-2.7C888.7,444,889.9,442.8,891.4,442.8L891.4,442.8z M897,417.1c1.5,0,2.7,1.2,2.7,2.7
			s-1.2,2.7-2.7,2.7c-1.5,0-2.7-1.2-2.7-2.7S895.5,417.1,897,417.1L897,417.1z M935.1,434.9c1.5,0,2.7,1.2,2.7,2.7
			c0,1.5-1.2,2.7-2.7,2.7c-1.5,0-2.7-1.2-2.7-2.7C932.5,436.1,933.7,434.9,935.1,434.9L935.1,434.9z M1043.2,458.1
			c1.5,0,2.7,1.2,2.7,2.7c0,1.5-1.2,2.7-2.7,2.7c-1.5,0-2.7-1.2-2.7-2.7C1040.6,459.3,1041.8,458.1,1043.2,458.1L1043.2,458.1z
			 M984.7,449.6c1.5,0,2.7,1.2,2.7,2.7c0,1.5-1.2,2.7-2.7,2.7c-1.5,0-2.7-1.2-2.7-2.7C982,450.7,983.2,449.6,984.7,449.6
			L984.7,449.6z M967.6,437.7c1.5,0,2.7,1.2,2.7,2.7c0,1.5-1.2,2.7-2.7,2.7c-1.5,0-2.7-1.2-2.7-2.7
			C964.9,438.9,966.1,437.7,967.6,437.7L967.6,437.7z M998.8,426.4c1.5,0,2.7,1.2,2.7,2.7c0,1.5-1.2,2.7-2.7,2.7
			c-1.5,0-2.7-1.2-2.7-2.7C996.1,427.6,997.3,426.4,998.8,426.4L998.8,426.4z M1020.1,448.2c1.5,0,2.7,1.2,2.7,2.7
			c0,1.5-1.2,2.7-2.7,2.7c-1.5,0-2.7-1.2-2.7-2.7C1017.5,449.3,1018.6,448.2,1020.1,448.2L1020.1,448.2z M1034,432.2
			c1.5,0,2.7,1.2,2.7,2.7c0,1.5-1.2,2.7-2.7,2.7c-1.5,0-2.7-1.2-2.7-2.7C1031.3,433.4,1032.5,432.2,1034,432.2L1034,432.2z
			 M1141.2,474.1c1.5,0,2.7,1.2,2.7,2.7s-1.2,2.7-2.7,2.7c-1.5,0-2.7-1.2-2.7-2.7S1139.7,474.1,1141.2,474.1L1141.2,474.1z
			 M1055.5,444.9c1.5,0,2.7,1.2,2.7,2.7c0,1.5-1.2,2.7-2.7,2.7c-1.5,0-2.7-1.2-2.7-2.7C1052.9,446.1,1054.1,444.9,1055.5,444.9
			L1055.5,444.9z M1074.5,456c1.5,0,2.7,1.2,2.7,2.7s-1.2,2.7-2.7,2.7s-2.7-1.2-2.7-2.7S1073,456,1074.5,456L1074.5,456z
			 M1101.8,444.2c1.5,0,2.7,1.2,2.7,2.7c0,1.5-1.2,2.7-2.7,2.7s-2.7-1.2-2.7-2.7C1099.2,445.4,1100.4,444.2,1101.8,444.2
			L1101.8,444.2z M1161.1,473.9c1.5,0,2.7,1.2,2.7,2.7c0,1.5-1.2,2.7-2.7,2.7s-2.7-1.2-2.7-2.7
			C1158.4,475.1,1159.6,473.9,1161.1,473.9L1161.1,473.9z M1097.9,466.5c1.5,0,2.7,1.2,2.7,2.7c0,1.5-1.2,2.7-2.7,2.7
			s-2.7-1.2-2.7-2.7C1095.2,467.7,1096.4,466.5,1097.9,466.5L1097.9,466.5z M1147.4,453.5c1.5,0,2.7,1.2,2.7,2.7
			c0,1.5-1.2,2.7-2.7,2.7s-2.7-1.2-2.7-2.7C1144.8,454.7,1146,453.5,1147.4,453.5L1147.4,453.5z M1183.1,455.3
			c1.5,0,2.7,1.2,2.7,2.7c0,1.5-1.2,2.7-2.7,2.7s-2.7-1.2-2.7-2.7C1180.4,456.5,1181.6,455.3,1183.1,455.3L1183.1,455.3z
			 M1124.3,465.3c1.5,0,2.7,1.2,2.7,2.7c0,1.5-1.2,2.7-2.7,2.7s-2.7-1.2-2.7-2.7C1121.6,466.5,1122.8,465.3,1124.3,465.3
			L1124.3,465.3z M1238.6,474.1c1.5,0,2.7,1.2,2.7,2.7s-1.2,2.7-2.7,2.7s-2.7-1.2-2.7-2.7S1237.2,474.1,1238.6,474.1L1238.6,474.1z
			 M1188.4,481.3c1.5,0,2.7,1.2,2.7,2.7c0,1.5-1.2,2.7-2.7,2.7s-2.7-1.2-2.7-2.7C1185.7,482.5,1186.9,481.3,1188.4,481.3
			L1188.4,481.3z M1218.5,456.7c1.5,0,2.7,1.2,2.7,2.7c0,1.5-1.2,2.7-2.7,2.7s-2.7-1.2-2.7-2.7
			C1215.8,457.9,1217,456.7,1218.5,456.7L1218.5,456.7z M1233.8,457.9c1.5,0,2.7,1.2,2.7,2.7c0,1.5-1.2,2.7-2.7,2.7
			s-2.7-1.2-2.7-2.7C1231.1,459.1,1232.3,457.9,1233.8,457.9L1233.8,457.9z M1222.4,472.3c1.5,0,2.7,1.2,2.7,2.7
			c0,1.5-1.2,2.7-2.7,2.7c-1.5,0-2.7-1.2-2.7-2.7C1219.8,473.4,1221,472.3,1222.4,472.3L1222.4,472.3z M1268.3,476.6
			c1.5,0,2.7,1.2,2.7,2.7c0,1.5-1.2,2.7-2.7,2.7s-2.7-1.2-2.7-2.7C1265.6,477.8,1266.8,476.6,1268.3,476.6L1268.3,476.6z
			 M1298.8,510.3c1.5,0,2.7,1.2,2.7,2.7c0,1.5-1.2,2.7-2.7,2.7c-1.5,0-2.7-1.2-2.7-2.7C1296.2,511.5,1297.3,510.3,1298.8,510.3
			L1298.8,510.3z M1258.1,499.7c1.5,0,2.7,1.2,2.7,2.7c0,1.5-1.2,2.7-2.7,2.7c-1.5,0-2.7-1.2-2.7-2.7
			C1255.4,500.9,1256.6,499.7,1258.1,499.7L1258.1,499.7z M1291.6,439.7c1.5,0,2.7,1.2,2.7,2.7c0,1.5-1.2,2.7-2.7,2.7
			s-2.7-1.2-2.7-2.7C1289,440.9,1290.2,439.7,1291.6,439.7L1291.6,439.7z M1318.7,474.5c1.5,0,2.7,1.2,2.7,2.7
			c0,1.5-1.2,2.7-2.7,2.7c-1.5,0-2.7-1.2-2.7-2.7C1316.1,475.7,1317.3,474.5,1318.7,474.5L1318.7,474.5z M1385.6,528
			c1.5,0,2.7,1.2,2.7,2.7s-1.2,2.7-2.7,2.7s-2.7-1.2-2.7-2.7S1384.1,528,1385.6,528L1385.6,528z M1336.3,501.1
			c1.5,0,2.7,1.2,2.7,2.7c0,1.5-1.2,2.7-2.7,2.7s-2.7-1.2-2.7-2.7C1333.6,502.3,1334.8,501.1,1336.3,501.1L1336.3,501.1z
			 M1389.6,511.1c1.5,0,2.7,1.2,2.7,2.7s-1.2,2.7-2.7,2.7s-2.7-1.2-2.7-2.7S1388.1,511.1,1389.6,511.1L1389.6,511.1z M1353.4,486.1
			c1.5,0,2.7,1.2,2.7,2.7c0,1.5-1.2,2.7-2.7,2.7s-2.7-1.2-2.7-2.7C1350.8,487.2,1352,486.1,1353.4,486.1L1353.4,486.1z
			 M1366.2,505.5c1.5,0,2.7,1.2,2.7,2.7c0,1.5-1.2,2.7-2.7,2.7s-2.7-1.2-2.7-2.7C1363.5,506.7,1364.7,505.5,1366.2,505.5
			L1366.2,505.5z M1339.8,516.2c1.5,0,2.7,1.2,2.7,2.7c0,1.5-1.2,2.7-2.7,2.7c-1.5,0-2.7-1.2-2.7-2.7
			C1337.1,517.4,1338.3,516.2,1339.8,516.2L1339.8,516.2z M685.3,436.3c-1.5,0-2.7,1.2-2.7,2.7c0,1.5,1.2,2.7,2.7,2.7
			c1.5,0,2.7-1.2,2.7-2.7C687.9,437.5,686.7,436.3,685.3,436.3L685.3,436.3z M699.4,413.6c-1.5,0-2.7,1.2-2.7,2.7
			c0,1.5,1.2,2.7,2.7,2.7c1.5,0,2.7-1.2,2.7-2.7C702,414.8,700.8,413.6,699.4,413.6L699.4,413.6z M640.6,413.2
			c-1.5,0-2.7,1.2-2.7,2.7c0,1.5,1.2,2.7,2.7,2.7c1.5,0,2.7-1.2,2.7-2.7C643.2,414.4,642.1,413.2,640.6,413.2L640.6,413.2z
			 M653.3,437.5c-1.5,0-2.7,1.2-2.7,2.7c0,1.5,1.2,2.7,2.7,2.7c1.5,0,2.7-1.2,2.7-2.7C656,438.7,654.8,437.5,653.3,437.5
			L653.3,437.5z M660.7,413.4c-1.5,0-2.7,1.2-2.7,2.7c0,1.5,1.2,2.7,2.7,2.7c1.5,0,2.7-1.2,2.7-2.7
			C663.4,414.6,662.2,413.4,660.7,413.4L660.7,413.4z M615.1,439.8c-1.5,0-2.7,1.2-2.7,2.7c0,1.5,1.2,2.7,2.7,2.7
			c1.5,0,2.7-1.2,2.7-2.7C617.8,441,616.6,439.8,615.1,439.8L615.1,439.8z M526.8,419.2c-1.5,0-2.7,1.2-2.7,2.7
			c0,1.5,1.2,2.7,2.7,2.7c1.5,0,2.7-1.2,2.7-2.7C529.5,420.4,528.3,419.2,526.8,419.2L526.8,419.2z M573.4,414.8
			c-1.5,0-2.7,1.2-2.7,2.7c0,1.5,1.2,2.7,2.7,2.7c1.5,0,2.7-1.2,2.7-2.7C576,416,574.8,414.8,573.4,414.8L573.4,414.8z M568.3,438
			c-1.5,0-2.7,1.2-2.7,2.7s1.2,2.7,2.7,2.7c1.5,0,2.7-1.2,2.7-2.7S569.7,438,568.3,438L568.3,438z M485.8,418.5
			c-1.5,0-2.7,1.2-2.7,2.7c0,1.5,1.2,2.7,2.7,2.7s2.7-1.2,2.7-2.7C488.5,419.7,487.3,418.5,485.8,418.5L485.8,418.5z M512.7,442.8
			c-1.5,0-2.7,1.2-2.7,2.7c0,1.5,1.2,2.7,2.7,2.7c1.5,0,2.7-1.2,2.7-2.7C515.4,444,514.2,442.8,512.7,442.8L512.7,442.8z
			 M507.1,417.1c-1.5,0-2.7,1.2-2.7,2.7s1.2,2.7,2.7,2.7s2.7-1.2,2.7-2.7S508.6,417.1,507.1,417.1L507.1,417.1z M468.9,434.9
			c-1.5,0-2.7,1.2-2.7,2.7c0,1.5,1.2,2.7,2.7,2.7s2.7-1.2,2.7-2.7C471.6,436.1,470.4,434.9,468.9,434.9L468.9,434.9z M360.8,458.1
			c-1.5,0-2.7,1.2-2.7,2.7c0,1.5,1.2,2.7,2.7,2.7c1.5,0,2.7-1.2,2.7-2.7C363.5,459.3,362.3,458.1,360.8,458.1L360.8,458.1z
			 M419.4,449.6c-1.5,0-2.7,1.2-2.7,2.7c0,1.5,1.2,2.7,2.7,2.7s2.7-1.2,2.7-2.7C422.1,450.7,420.9,449.6,419.4,449.6L419.4,449.6z
			 M436.5,437.7c-1.5,0-2.7,1.2-2.7,2.7c0,1.5,1.2,2.7,2.7,2.7s2.7-1.2,2.7-2.7C439.2,438.9,438,437.7,436.5,437.7L436.5,437.7z
			 M405.3,426.4c-1.5,0-2.7,1.2-2.7,2.7c0,1.5,1.2,2.7,2.7,2.7s2.7-1.2,2.7-2.7C407.9,427.6,406.7,426.4,405.3,426.4L405.3,426.4z
			 M384,448.2c-1.5,0-2.7,1.2-2.7,2.7c0,1.5,1.2,2.7,2.7,2.7s2.7-1.2,2.7-2.7C386.7,449.3,385.5,448.2,384,448.2L384,448.2z
			 M370.1,432.2c-1.5,0-2.7,1.2-2.7,2.7c0,1.5,1.2,2.7,2.7,2.7s2.7-1.2,2.7-2.7C372.8,433.4,371.6,432.2,370.1,432.2L370.1,432.2z
			 M262.9,474.1c-1.5,0-2.7,1.2-2.7,2.7s1.2,2.7,2.7,2.7s2.7-1.2,2.7-2.7S264.4,474.1,262.9,474.1L262.9,474.1z M348.6,444.9
			c-1.5,0-2.7,1.2-2.7,2.7c0,1.5,1.2,2.7,2.7,2.7s2.7-1.2,2.7-2.7C351.2,446.1,350.1,444.9,348.6,444.9L348.6,444.9z M329.6,456
			c-1.5,0-2.7,1.2-2.7,2.7s1.2,2.7,2.7,2.7s2.7-1.2,2.7-2.7S331,456,329.6,456L329.6,456z M302.3,444.2c-1.5,0-2.7,1.2-2.7,2.7
			c0,1.5,1.2,2.7,2.7,2.7s2.7-1.2,2.7-2.7C304.9,445.4,303.8,444.2,302.3,444.2L302.3,444.2z M243,473.9c-1.5,0-2.7,1.2-2.7,2.7
			c0,1.5,1.2,2.7,2.7,2.7s2.7-1.2,2.7-2.7C245.7,475.1,244.5,473.9,243,473.9L243,473.9z M306.2,466.5c-1.5,0-2.7,1.2-2.7,2.7
			c0,1.5,1.2,2.7,2.7,2.7s2.7-1.2,2.7-2.7C308.9,467.7,307.7,466.5,306.2,466.5L306.2,466.5z M256.7,453.5c-1.5,0-2.7,1.2-2.7,2.7
			c0,1.5,1.2,2.7,2.7,2.7s2.7-1.2,2.7-2.7C259.3,454.7,258.2,453.5,256.7,453.5L256.7,453.5z M221,455.3c-1.5,0-2.7,1.2-2.7,2.7
			c0,1.5,1.2,2.7,2.7,2.7s2.7-1.2,2.7-2.7C223.7,456.5,222.5,455.3,221,455.3L221,455.3z M279.8,465.3c-1.5,0-2.7,1.2-2.7,2.7
			c0,1.5,1.2,2.7,2.7,2.7s2.7-1.2,2.7-2.7C282.5,466.5,281.3,465.3,279.8,465.3L279.8,465.3z M165.5,474.1c-1.5,0-2.7,1.2-2.7,2.7
			s1.2,2.7,2.7,2.7s2.7-1.2,2.7-2.7S167,474.1,165.5,474.1L165.5,474.1z M215.7,481.3c-1.5,0-2.7,1.2-2.7,2.7c0,1.5,1.2,2.7,2.7,2.7
			c1.5,0,2.7-1.2,2.7-2.7C218.4,482.5,217.2,481.3,215.7,481.3L215.7,481.3z M185.6,456.7c-1.5,0-2.7,1.2-2.7,2.7
			c0,1.5,1.2,2.7,2.7,2.7c1.5,0,2.7-1.2,2.7-2.7C188.3,457.9,187.1,456.7,185.6,456.7L185.6,456.7z M170.3,457.9
			c-1.5,0-2.7,1.2-2.7,2.7c0,1.5,1.2,2.7,2.7,2.7c1.5,0,2.7-1.2,2.7-2.7C173,459.1,171.8,457.9,170.3,457.9L170.3,457.9z
			 M181.7,472.3c-1.5,0-2.7,1.2-2.7,2.7c0,1.5,1.2,2.7,2.7,2.7s2.7-1.2,2.7-2.7C184.3,473.4,183.2,472.3,181.7,472.3L181.7,472.3z
			 M135.8,476.6c-1.5,0-2.7,1.2-2.7,2.7c0,1.5,1.2,2.7,2.7,2.7s2.7-1.2,2.7-2.7C138.5,477.8,137.3,476.6,135.8,476.6L135.8,476.6z
			 M105.3,510.3c-1.5,0-2.7,1.2-2.7,2.7c0,1.5,1.2,2.7,2.7,2.7c1.5,0,2.7-1.2,2.7-2.7C108,511.5,106.8,510.3,105.3,510.3
			L105.3,510.3z M146,499.7c-1.5,0-2.7,1.2-2.7,2.7c0,1.5,1.2,2.7,2.7,2.7s2.7-1.2,2.7-2.7C148.7,500.9,147.5,499.7,146,499.7
			L146,499.7z M112.5,439.7c-1.5,0-2.7,1.2-2.7,2.7c0,1.5,1.2,2.7,2.7,2.7s2.7-1.2,2.7-2.7C115.1,440.9,113.9,439.7,112.5,439.7
			L112.5,439.7z M85.4,474.5c-1.5,0-2.7,1.2-2.7,2.7c0,1.5,1.2,2.7,2.7,2.7s2.7-1.2,2.7-2.7C88,475.7,86.9,474.5,85.4,474.5
			L85.4,474.5z M18.5,528c-1.5,0-2.7,1.2-2.7,2.7s1.2,2.7,2.7,2.7c1.5,0,2.7-1.2,2.7-2.7S19.9,528,18.5,528L18.5,528z M67.8,501.1
			c-1.5,0-2.7,1.2-2.7,2.7c0,1.5,1.2,2.7,2.7,2.7s2.7-1.2,2.7-2.7C70.4,502.3,69.2,501.1,67.8,501.1L67.8,501.1z M14.5,511.1
			c-1.5,0-2.7,1.2-2.7,2.7s1.2,2.7,2.7,2.7c1.5,0,2.7-1.2,2.7-2.7S16,511.1,14.5,511.1L14.5,511.1z M50.7,486.1
			c-1.5,0-2.7,1.2-2.7,2.7c0,1.5,1.2,2.7,2.7,2.7s2.7-1.2,2.7-2.7C53.3,487.2,52.1,486.1,50.7,486.1L50.7,486.1z M37.9,505.5
			c-1.5,0-2.7,1.2-2.7,2.7c0,1.5,1.2,2.7,2.7,2.7c1.5,0,2.7-1.2,2.7-2.7C40.6,506.7,39.4,505.5,37.9,505.5L37.9,505.5z M64.3,516.2
			c-1.5,0-2.7,1.2-2.7,2.7c0,1.5,1.2,2.7,2.7,2.7s2.7-1.2,2.7-2.7C67,517.4,65.8,516.2,64.3,516.2L64.3,516.2z"/>
	</g>
	<g>
		<path fill-rule="evenodd" clip-rule="evenodd" fill="#FFFFFF" d="M699.9,848.3c356.2,0,646.7-79.7,646.7-177.3
			s-290.5-177.3-646.7-177.3S53.2,573.4,53.2,671.1S343.7,848.3,699.9,848.3L699.9,848.3z"/>
		<path fill-rule="evenodd" clip-rule="evenodd" fill="#007D2A" d="M699.9,841.9c352.7,0,640.4-77.9,640.4-173.3
			s-287.7-173.3-640.4-173.3S59.5,573.1,59.5,668.6S347.2,841.9,699.9,841.9L699.9,841.9z"/>
		<path fill-rule="evenodd" clip-rule="evenodd" fill="#00702F" d="M699.9,495.2c3.6,0,7.2,0,10.8,0l40.8,346.1
			c-17,0.4-34.3,0.6-51.7,0.6s-34.6-0.2-51.7-0.6l40.8-346.1C692.7,495.3,696.3,495.2,699.9,495.2L699.9,495.2z M731.9,495.4
			c7.3,0.1,14.6,0.2,21.9,0.4l194.5,332.5c-31.2,3.6-63.7,6.4-97.3,8.7L731.9,495.4z M775.5,496.5c7.6,0.2,15.2,0.5,22.7,0.8
			l318.5,302.9c-25.2,5.9-52.2,11.2-80.6,15.9L775.5,496.5z M821.3,498.4c8.2,0.4,16.3,0.9,24.4,1.4l396.4,261.1
			c-17.2,7.4-36.4,14.4-57.4,21L821.3,498.4z M870.9,501.5c9.2,0.7,18.4,1.4,27.5,2.2l418.8,211c-8.4,8.2-19,16.3-31.5,23.9
			L870.9,501.5z M927.7,506.5c11.3,1.2,22.5,2.4,33.5,3.7l378.9,154.5c0.1,1.2,0.2,2.5,0.2,3.7c0,7.4-1.7,14.7-5,21.9L927.7,506.5z
			 M999.3,515.3c16.9,2.4,33.3,5,49.2,7.8l254.9,87.3c12,9.1,21.3,18.7,27.5,28.4L999.3,515.3z M1128.3,539.7
			c42,10.2,79,22,109.8,34.9L1128.3,539.7z M548.8,837c-33.5-2.2-66-5.1-97.3-8.7L646,495.9c7.2-0.2,14.6-0.3,21.9-0.4L548.8,837z
			 M363.6,816.1c-28.4-4.8-55.4-10.1-80.6-15.9l318.5-302.9c7.6-0.3,15.2-0.6,22.7-0.8L363.6,816.1z M215.1,781.8
			c-21-6.6-40.2-13.6-57.4-21l396.4-261.1c8.1-0.5,16.2-1,24.5-1.4L215.1,781.8z M114.1,738.6c-12.6-7.7-23.2-15.7-31.6-23.9
			l418.9-211c9.1-0.8,18.3-1.5,27.5-2.2L114.1,738.6z M64.6,690.4c-3.3-7.1-5.1-14.5-5.1-21.9c0-1.3,0.1-2.5,0.2-3.7l379-154.5
			c11-1.3,22.1-2.6,33.4-3.7L64.6,690.4z M68.9,638.9c6.2-9.8,15.5-19.3,27.5-28.4l254.9-87.3c16-2.8,32.4-5.4,49.2-7.8L68.9,638.9z
			 M161.8,574.6c30.8-12.9,67.8-24.6,109.8-34.9L161.8,574.6z"/>
		<polygon fill-rule="evenodd" clip-rule="evenodd" fill="#EDD156" points="678.6,585 721.3,585 730.5,663 669.4,663 		"/>
	</g>
	<g>
		<path fill-rule="evenodd" clip-rule="evenodd" fill="#191C24" d="M0,906c19.8-51.9,39.9-103.8,59.9-155.7
			c-21.5-52.7,77-70.1,56.5-28.7c12.4-4.3,20.6,6.7,2.2,19.8c-11.5,8.2-24,14-30.1,28.2C64.2,826.1,76.5,891,87.7,980H0V906z"/>
		<path fill-rule="evenodd" clip-rule="evenodd" fill="#191C24" d="M345,808.3c-7.8-46.3,78.4-48.6,51.7-12.2
			c11.8-3.8,16.7,5.8-2.2,17.3c-11.9,7.2-24,12.3-32.4,24.8C329,887.8,324.7,949,307.5,980H250C249.4,954,293.3,891.3,345,808.3
			L345,808.3z"/>
		<path fill-rule="evenodd" clip-rule="evenodd" fill="#191C24" d="M1333.2,801.2c-3.6,0-29.4-13-34.2-12.2
			c-14.7,2.6-11.1,22.5-17,32.2c-8.2,13.5,4.9,33.1,8.1,54c4.5,29.7,21.1,55.6,41.3,67.4c-26.2,3.6-68.1,18.3-97.7,37.3H1400v-31
			c-7.4-2.5-15.6-4.4-23.6-5.7c17.5-11.4,26.9-37.6,22.3-68c-2.3-15.1-4.4-45.1-11.9-56.8c-7.3-11.4-36.5-29.8-47.5-31.1
			C1331,786.3,1341.3,801.2,1333.2,801.2L1333.2,801.2z"/>
		<path fill-rule="evenodd" clip-rule="evenodd" fill="#191C24" d="M1056.3,863c-12.2,0-36.3,4.4-42.8,12.3
			c-6.9,8.2,4.1,20.3,6.8,33.1c3.7,18.2,17.6,34.2,34.5,41.4c-29.9,3-50.5,15.2-54.6,30.2h165.4c-15.3-14-42.9-25.9-73.3-29.6
			c14.6-7,22.5-23.2,18.7-41.8c-1.9-9.3-3.7-27.7-9.9-34.9C1090.5,861.4,1072.1,863,1056.3,863L1056.3,863z"/>
		<path fill-rule="evenodd" clip-rule="evenodd" fill="#191C24" d="M484.3,855.7c25.1,0,41.2,20.4,36,45.4
			c-3.7,18.1-17.6,34.2-34.5,41.4c34.4,3.5,56.7,18.4,55.3,37.4H368.5c12.9-18,44.5-32.5,79.7-36.8c-14.6-7-22.5-23.2-18.7-41.8
			C434.7,876.3,459.2,855.7,484.3,855.7L484.3,855.7z"/>
		<path fill-rule="evenodd" clip-rule="evenodd" fill="#191C24" d="M183.5,874.8c38.5,0,63.3,31.6,55.3,70.1
			c-2.6,12.7-8.4,25.1-16.4,35.1H101.5c-3.8-10-4.7-22.5-2.1-35.1C107.4,906.3,145,874.8,183.5,874.8L183.5,874.8z"/>
		<path fill-rule="evenodd" clip-rule="evenodd" fill="#191C24" d="M978.4,980l-33.9-88.5c21.5-52.7-77-70.3-56.5-28.9
			c-12.4-4.3-20.6,6.7-2.2,19.7c11.5,8.2,24.1,13.9,30.2,28.2c9.2,21.6,13.2,44.5,13.8,69.5H978.4z"/>
		<path fill-rule="evenodd" clip-rule="evenodd" fill="#191C24" d="M1246.2,894.6c3.8-23-38.9-24.2-25.6-6.2
			c-5.9-1.9-8.3,2.9,1.1,8.6c5.9,3.6,11.9,6.2,16.1,12.5c16.5,24.6,18.6,55.5,27.1,70.5h28.6C1293.7,967,1271.9,935.8,1246.2,894.6
			L1246.2,894.6z"/>
	</g>
	<g>
		<g>
			<path fill-rule="evenodd" clip-rule="evenodd" fill="#5B697D" d="M0,0h1400v220C986.4,66,440.7,69.4,0,220V0z"/>
			<path fill-rule="evenodd" clip-rule="evenodd" fill="#2E323D" d="M0,0h1400v185C986.4,68.2,440.7,71.1,0,185V0z"/>
		</g>
		<g>
			<path fill-rule="evenodd" clip-rule="evenodd" fill="#3F4557" d="M280.4,107.7c15.3,6,22.9,27.5,17.4,53
				c-5.2,23.9-31,64.2-60.5,52.5l-90.5-35.7l41.2-106.3L280.4,107.7z"/>
			<path fill-rule="evenodd" clip-rule="evenodd" fill="#191C24" d="M179.6,69.9c21.2,0,33.1,24.5,26.5,54.7
				c-6.6,30.2-29.1,54.7-50.4,54.7c-21.2,0-33.1-24.5-26.5-54.7S158.4,69.9,179.6,69.9L179.6,69.9z"/>
		</g>
		<g>
			<path fill-rule="evenodd" clip-rule="evenodd" fill="#3F4557" d="M1150.6,107.7c-15.3,6-22.9,27.5-17.4,53
				c5.2,23.9,30.9,64.2,60.5,52.5l90.5-35.7l-41.2-106.3L1150.6,107.7z"/>
			<path fill-rule="evenodd" clip-rule="evenodd" fill="#191C24" d="M1251.5,69.9c-21.2,0-33.1,24.5-26.5,54.7
				c6.6,30.2,29.1,54.7,50.3,54.7c21.2,0,33.1-24.5,26.5-54.7S1272.7,69.9,1251.5,69.9L1251.5,69.9z"/>
		</g>
		<g>
			<path fill-rule="evenodd" clip-rule="evenodd" fill="#3F4557" d="M759,148.8c0,32.8-26.3,59.3-59,59.3c-32.7,0-59-26.6-59-59.3
				c0-15.7,0-30,0-45.7c0-32.8,26.3-59.3,59-59.3c32.7,0,59,26.6,59,59.3C759,118.8,759,133.1,759,148.8L759,148.8z"/>
			<path fill-rule="evenodd" clip-rule="evenodd" fill="#191C24" d="M699.9,162.4c32.7,0,59.2-26.6,59.2-59.3
				c0-32.7-26.6-59.3-59.2-59.3c-32.7,0-59.2,26.6-59.2,59.3C640.7,135.8,667.3,162.4,699.9,162.4L699.9,162.4z"/>
		</g>
	</g>
</g>
</svg>
