<svg id="Layer_1" xmlns="http://www.w3.org/2000/svg" viewBox="0 0 320 373"><style>.st10,.st8,.st9{fill:none;stroke-width:2}.st8,.st9{stroke:#fff}.st10,.st9{stroke-linecap:square}.st10{stroke:#987447}</style><path fill="#46ab20" d="M0 0h320v373H0z"/><g opacity=".64"><path d="M0 0h19v373H0zm39 0h19v373H39zm39 0h19v373H78zm39 0h19v373h-19zm39 0h19v373h-19zm39 0h19v373h-19zm39 0h19v373h-19zm39 0h19v373h-19z" transform="translate(14)" opacity=".32" fill="#376c23"/></g><path d="M148 55h27c55.2 0 100 44.8 100 100v95c0 55.2-44.8 100-100 100h-27c-55.2 0-100-44.8-100-100v-95C48 99.8 92.8 55 148 55z" opacity=".1" fill="none" stroke="#fff" stroke-width="2"/><path opacity=".5" fill="#4fb735" fill-opacity=".08" d="M0 0h320v373H0z"/><g opacity=".8"><path opacity=".7" fill="#ae9053" d="M5 0h58v156H5z" transform="translate(126 126)"/><g opacity=".1"><path class="st8" d="M0 18h68" transform="translate(126 132.51)"/><path class="st9" d="M16.8 6.7H51" transform="translate(126 132.51)"/><path class="st10" d="M29.2 6.7h9.5" transform="translate(126 132.51)"/><path class="st9" d="M15.9.5v17.1M52 .5v17.1" transform="translate(126 132.51)"/></g><g opacity=".1"><path class="st8" d="M0 19h68" transform="matrix(1 0 0 -1 126 274.36)"/><path class="st9" d="M16.8 6.7H51" transform="matrix(1 0 0 -1 126 274.36)"/><path class="st10" d="M29.2 6.7h9.5" transform="matrix(1 0 0 -1 126 274.36)"/><path class="st9" d="M15.9.5v17.1M52 .5v17.1" transform="matrix(1 0 0 -1 126 274.36)"/></g></g><path d="M137.6 11.1c-.3-.3-.7-.5-1.2-.7-.5-.2-1-.2-1.7-.2H130l.8 1.1V21l-.8 1.1h4.8c.6 0 1.2-.1 1.7-.3.5-.2.9-.4 1.2-.7s.5-.6.7-1c.2-.4.2-.8.2-1.2v-5.5c0-.4-.1-.8-.2-1.2-.2-.4-.5-.8-.8-1.1zm-1.8 7.8c0 .3-.1.6-.3.8-.2.2-.5.3-.9.3h-1v-7.7h1c.4 0 .7.1.9.3.2.2.3.5.3.8v5.5zm10.6-2c.2-.1.4-.2.6-.4.2-.2.6-.6.6-1.6v-2.2c0-.2 0-.5-.1-.8 0-.3-.2-.6-.3-.8-.2-.3-.5-.5-.8-.6-.4-.2-.9-.3-1.5-.3H140v11.9h2.8V18h1.6c.3 0 .7.2.7.6v3.5h2.8v-3.4c0-.5-.2-1.6-1.5-1.8zm-1.6-2.1c0 .6-.2 1-.9 1h-1.2v-3.6h1.1c.3 0 1 0 1 .9v1.7zm7.1 4.5v-2.1h3.3V15h-3.3v-2s0-.6.5-.6h3.2v-2.2H152c-2.6 0-2.9 1.7-2.9 2.7v6.4c0 2.1 1.4 2.7 2.7 2.7h3.8v-2.2h-3.2c-.6.1-.5-.5-.5-.5zm9.4-9.1H157v11.9h2.8V18h2.5v4.1h2.8v-8.5c-.1-2.6-1.8-3.4-3.8-3.4zm.9 5.6h-2.5v-3.6h1.3c.9 0 1.2.4 1.2 1.1v2.5zm15.9-4.9c-.5-.4-1.1-.9-2.7-.9-1.1 0-2 .2-2.7.5-.2-.1-.5-.3-.8-.4-.3-.1-2.2-.4-5.2.2V22h2.8v-9.6c1.2-.1 1.6 0 1.7.1.5.3.5.8.5 1v8.4h2.4V12.6c.1-.1.2-.1.5-.1.2-.1.8-.2 1.2 0 .2.1.5.3.5.9v8.5h2.8v-8.7c-.2-.7-.3-1.7-1-2.3zm3.9 11.2h2.7V10.2h-3.2l-.8 2.5h1.3zm5.2 0h2.8V10.2h-3.2l-.8 2.5h1.2z" fill="#fff" opacity=".3"/></svg>